<svg width="90" height="88" viewBox="0 0 90 88" fill="none" xmlns="http://www.w3.org/2000/svg">
<path d="M10.7994 0.0223646C10.7994 0.0223646 7.56095 -0.498356 3.38118 3.48544C1.92148 4.87661 -1.90735e-06 7.36083 -1.90735e-06 7.36083H20.191C19.2615 5.98709 17.6788 4.02293 15.1896 2.29882C13.58 1.18382 12.0361 0.477269 10.7994 0.0230105V0.0223646Z" fill="#63C373"/>
<path d="M89.9739 76.6692C89.9739 76.6692 90.5048 79.8335 86.4434 83.9177C85.0251 85.344 82.4925 87.2215 82.4925 87.2215V68.5311C83.4556 68.8069 85.1712 69.7987 86.7953 71.2712C89.0332 73.2998 89.743 75.698 89.9732 76.6692H89.9739Z" fill="#63C373"/>
<path d="M10.789 0.0217285C12.4421 0.913011 13.9544 2.03273 15.2799 3.3443L85.165 71.8498C86.8971 73.5483 88.5081 75.3604 89.9862 77.2752V56.682L89.9967 56.691V8.57022C89.9967 1.15555 85.2279 0.0217285 82.3707 0.0217285H10.789Z" fill="#6BD27C"/>
<path d="M54.6933 7.41193C56.2795 5.85602 58.3624 5.86353 59.8042 7.27727C60.3304 7.7934 60.7559 8.43669 60.943 8.97429L59.9628 9.73776C59.7107 9.16475 59.4437 8.6631 58.9176 8.14697C57.9374 7.18552 56.7116 7.4114 55.7025 8.40128C54.6933 9.39116 54.4625 10.5935 55.4432 11.555C55.9694 12.0711 56.4814 12.3329 57.065 12.5803L56.2866 13.5417C55.7386 13.3577 55.0828 12.9408 54.5566 12.4247C53.1148 11.0104 53.1077 8.96731 54.6933 7.4114L54.6933 7.41193Z" fill="white"/>
<path d="M59.0186 11.6567C60.6048 10.1008 62.6877 10.1083 64.1295 11.522C65.5713 12.9363 65.5784 14.9799 63.9922 16.5353C62.4066 18.0907 60.3231 18.0837 58.8813 16.6694C57.4395 15.2551 57.4324 13.2121 59.0181 11.6561L59.0186 11.6567ZM60.0278 12.6466C59.0186 13.6365 58.7878 14.8383 59.7685 15.8002C60.7487 16.7617 61.9744 16.5358 62.9836 15.5459C63.9928 14.5561 64.2236 13.3542 63.2429 12.3923C62.2627 11.4308 61.0369 11.6572 60.0278 12.6471L60.0278 12.6466Z" fill="white"/>
<path d="M66.4094 23.8524L69.3576 20.1118L65.7459 21.1232L66.7622 17.5805L62.9564 20.4654L61.9976 19.5249L67.7424 15.2611L68.4994 16.0037L67.4328 19.4685L70.9575 18.4148L71.7145 19.1573L67.3677 24.7924L66.4089 23.8519L66.4094 23.8524Z" fill="white"/>
<path d="M68.2044 25.6142L73.2502 20.6648L74.173 21.5699L69.1272 26.5193L68.2044 25.6142Z" fill="white"/>
<path d="M73.4673 30.7745L74.6204 25.118L71.1602 28.512L70.2375 27.6069L75.2833 22.6575L76.1918 23.5486L75.0891 28.8586L78.3474 25.6625L79.2701 26.5676L74.2243 31.5171L73.4673 30.7745Z" fill="white"/>
<path d="M77.5609 29.8278C79.1395 28.2794 81.2158 28.2794 82.6931 29.7286C83.1832 30.2093 83.7236 30.9658 83.9112 31.5034L82.9305 32.2669C82.6997 31.7293 82.2747 31.0581 81.8278 30.6192C80.7755 29.5869 79.5645 29.8412 78.5838 30.8032C77.5533 31.8146 77.3514 33.0448 78.3962 34.0701C78.6051 34.2751 78.872 34.48 79.1674 34.671L80.0682 33.7874L79.5131 33.2428L80.2772 32.4933L81.7551 33.943L79.506 36.1491C78.9295 35.9935 77.9706 35.3926 77.3941 34.8271C75.9813 33.4413 75.9671 31.3907 77.5598 29.8284L77.5609 29.8278Z" fill="white"/>
<path d="M47.587 21.8378L48.7477 20.9118C48.7548 21.4419 49.0431 22.2483 49.8001 22.9908C50.3405 23.5209 50.8382 23.7403 51.249 23.3374C51.7609 22.8352 51.3786 22.1071 50.975 21.3008C50.5062 20.3602 49.98 19.3494 50.8814 18.4652C51.552 17.8075 52.8565 17.433 54.219 18.7694C54.9109 19.4481 55.3507 20.3039 55.4371 20.7283L54.399 21.5626C54.1539 20.7422 53.8586 20.1413 53.3756 19.6676C52.9862 19.2856 52.3517 18.8617 51.9196 19.2856C51.5159 19.6815 51.826 20.2969 52.2078 20.9965C52.7559 22.0009 53.4259 23.2237 52.3161 24.3128C51.7391 24.8788 50.5932 25.5076 48.8921 23.839C48.128 23.0895 47.6882 22.3046 47.5876 21.8378L47.587 21.8378Z" fill="white"/>
<path d="M53.9307 23.6357C55.5169 22.0798 57.5998 22.0873 59.0416 23.501C60.4834 24.9153 60.4905 26.9584 58.9043 28.5143C57.3187 30.0697 55.2353 30.0627 53.7934 28.6484C52.3516 27.2341 52.3445 25.1911 53.9302 23.6352L53.9307 23.6357ZM54.9399 24.6256C53.9307 25.6155 53.6999 26.8173 54.6801 27.7793C55.6608 28.7407 56.886 28.5148 57.8952 27.5249C58.9043 26.5351 59.1351 25.3332 58.1544 24.3713C57.1743 23.4098 55.9485 23.6357 54.9393 24.6256L54.9399 24.6256Z" fill="white"/>
<path d="M59.4107 29.0084C60.9969 27.4525 63.0798 27.46 64.5216 28.8737C65.9634 30.288 65.9705 32.3311 64.3843 33.887C62.7986 35.4423 60.7152 35.4354 59.2734 34.0211C57.8316 32.6068 57.8245 30.5637 59.4102 29.0078L59.4107 29.0084ZM60.4199 29.9983C59.4107 30.9881 59.1799 32.1899 60.1606 33.1519C61.1408 34.1134 62.3665 33.8875 63.3757 32.8976C64.3849 31.9077 64.6157 30.7059 63.635 29.7439C62.6548 28.7825 61.429 29.0084 60.4199 29.9983Z" fill="white"/>
<path d="M65.8975 40.3188L67.0505 34.6623L63.5904 38.0563L62.6677 37.1512L67.7135 32.2018L68.622 33.0929L67.5193 38.4029L70.7776 35.2068L71.7003 36.112L66.6545 41.0614L65.8975 40.3188Z" fill="white"/>
</svg>
