<svg width="35" height="35" viewBox="0 0 35 35" fill="none" xmlns="http://www.w3.org/2000/svg">
<path d="M0 17.4C0 7.79025 7.79025 0 17.4 0C27.0098 0 34.8 7.79025 34.8 17.4C34.8 27.0098 27.0098 34.8 17.4 34.8C7.79025 34.8 0 27.0098 0 17.4Z" fill="#00C950"/>
<g clip-path="url(#clip0_823_1598)">
<path d="M19.9211 18.0459L21.0195 24.2272C21.0318 24.3 21.0215 24.3748 20.9902 24.4417C20.9588 24.5085 20.9078 24.5642 20.844 24.6012C20.7801 24.6382 20.7065 24.6549 20.6329 24.649C20.5593 24.6431 20.4893 24.6148 20.4322 24.568L17.8367 22.6199C17.7114 22.5263 17.5592 22.4757 17.4028 22.4757C17.2464 22.4757 17.0942 22.5263 16.9689 22.6199L14.369 24.5673C14.312 24.614 14.2421 24.6422 14.1686 24.6481C14.0951 24.6541 14.0215 24.6375 13.9577 24.6005C13.8939 24.5636 13.8429 24.5081 13.8115 24.4414C13.78 24.3747 13.7697 24.3 13.7818 24.2272L14.8794 18.0459" stroke="white" stroke-width="1.45" stroke-linecap="round" stroke-linejoin="round"/>
<path d="M17.4003 18.8504C19.8027 18.8504 21.7503 16.9028 21.7503 14.5004C21.7503 12.098 19.8027 10.1504 17.4003 10.1504C14.9979 10.1504 13.0503 12.098 13.0503 14.5004C13.0503 16.9028 14.9979 18.8504 17.4003 18.8504Z" stroke="white" stroke-width="1.45" stroke-linecap="round" stroke-linejoin="round"/>
</g>
<defs>
<clipPath id="clip0_823_1598">
<rect width="17.4" height="17.4" fill="white" transform="translate(8.7002 8.7002)"/>
</clipPath>
</defs>
</svg>
