<svg width="35" height="35" viewBox="0 0 35 35" fill="none" xmlns="http://www.w3.org/2000/svg">
<path d="M0 8.7C0 3.89512 3.89512 0 8.7 0H26.1C30.9049 0 34.8 3.89512 34.8 8.7V26.1C34.8 30.9049 30.9049 34.8 26.1 34.8H8.7C3.89512 34.8 0 30.9049 0 26.1V8.7Z" fill="#4CAF50" fill-opacity="0.125"/>
<g clip-path="url(#clip0_0_2141)">
<path d="M17.4005 12.325C17.4013 12.035 17.3442 11.7478 17.2324 11.4802C17.1207 11.2126 16.9565 10.9701 16.7496 10.7669C16.5428 10.5637 16.2973 10.4039 16.0278 10.2969C15.7583 10.19 15.4701 10.138 15.1802 10.144C14.8903 10.1501 14.6045 10.214 14.3396 10.3321C14.0748 10.4502 13.8363 10.6201 13.638 10.8318C13.4398 11.0434 13.2859 11.2926 13.1854 11.5645C13.0848 11.8365 13.0397 12.1259 13.0527 12.4156C12.6265 12.5252 12.2309 12.7303 11.8957 13.0154C11.5606 13.3005 11.2947 13.6581 11.1182 14.0612C10.9418 14.4643 10.8594 14.9023 10.8772 15.3419C10.8951 15.7816 11.0127 16.2114 11.2213 16.5988C10.8546 16.8968 10.5662 17.2798 10.3813 17.7146C10.1963 18.1494 10.1204 18.6227 10.1602 19.0936C10.1999 19.5644 10.3541 20.0183 10.6093 20.416C10.8645 20.8136 11.2129 21.1429 11.6244 21.3751C11.5736 21.7683 11.6039 22.1676 11.7135 22.5486C11.8231 22.9295 12.0096 23.2839 12.2615 23.59C12.5135 23.896 12.8255 24.1472 13.1782 24.3279C13.531 24.5086 13.9171 24.6151 14.3127 24.6408C14.7083 24.6664 15.1049 24.6108 15.4781 24.4771C15.8513 24.3435 16.1931 24.1348 16.4825 23.8639C16.7718 23.593 17.0026 23.2656 17.1605 22.902C17.3184 22.5384 17.4001 22.1464 17.4005 21.75V12.325Z" stroke="#4CAF50" stroke-width="1.45" stroke-linecap="round" stroke-linejoin="round"/>
<path d="M17.4004 12.325C17.3995 12.035 17.4567 11.7478 17.5685 11.4802C17.6802 11.2126 17.8444 10.9701 18.0513 10.7669C18.2581 10.5637 18.5035 10.4039 18.7731 10.2969C19.0426 10.19 19.3308 10.138 19.6207 10.144C19.9106 10.1501 20.1964 10.214 20.4613 10.3321C20.7261 10.4502 20.9646 10.6201 21.1629 10.8318C21.3611 11.0434 21.515 11.2926 21.6155 11.5645C21.716 11.8365 21.7612 12.1259 21.7482 12.4156C22.1744 12.5252 22.57 12.7303 22.9052 13.0154C23.2403 13.3005 23.5062 13.6581 23.6826 14.0612C23.8591 14.4643 23.9415 14.9023 23.9237 15.3419C23.9058 15.7816 23.7881 16.2114 23.5796 16.5988C23.9463 16.8968 24.2347 17.2798 24.4196 17.7146C24.6045 18.1494 24.6804 18.6227 24.6407 19.0936C24.601 19.5644 24.4468 20.0183 24.1916 20.416C23.9364 20.8136 23.5879 21.1429 23.1765 21.3751C23.2273 21.7683 23.197 22.1676 23.0874 22.5486C22.9778 22.9295 22.7913 23.2839 22.5394 23.59C22.2874 23.896 21.9754 24.1472 21.6226 24.3279C21.2698 24.5086 20.8838 24.6151 20.4882 24.6408C20.0926 24.6664 19.696 24.6108 19.3228 24.4771C18.9496 24.3435 18.6078 24.1348 18.3184 23.8639C18.0291 23.593 17.7983 23.2656 17.6404 22.902C17.4825 22.5384 17.4008 22.1464 17.4004 21.75V12.325Z" stroke="#4CAF50" stroke-width="1.45" stroke-linecap="round" stroke-linejoin="round"/>
<path d="M19.5751 18.1251C18.9664 17.911 18.4349 17.5212 18.0478 17.005C17.6606 16.4888 17.4352 15.8694 17.4001 15.2251C17.365 15.8694 17.1396 16.4888 16.7524 17.005C16.3653 17.5212 15.8338 17.911 15.2251 18.1251" stroke="#4CAF50" stroke-width="1.45" stroke-linecap="round" stroke-linejoin="round"/>
<path d="M21.4595 13.4129C21.6349 13.1088 21.7342 12.7668 21.7487 12.416" stroke="#4CAF50" stroke-width="1.45" stroke-linecap="round" stroke-linejoin="round"/>
<path d="M13.0522 12.416C13.0666 12.7667 13.1656 13.1087 13.3408 13.4129" stroke="#4CAF50" stroke-width="1.45" stroke-linecap="round" stroke-linejoin="round"/>
<path d="M11.2212 16.5996C11.3538 16.4916 11.4958 16.3955 11.6453 16.3125" stroke="#4CAF50" stroke-width="1.45" stroke-linecap="round" stroke-linejoin="round"/>
<path d="M23.1553 16.3125C23.3048 16.3955 23.4468 16.4916 23.5794 16.5996" stroke="#4CAF50" stroke-width="1.45" stroke-linecap="round" stroke-linejoin="round"/>
<path d="M13.0501 21.7501C12.5505 21.7503 12.0592 21.6214 11.624 21.376" stroke="#4CAF50" stroke-width="1.45" stroke-linecap="round" stroke-linejoin="round"/>
<path d="M23.1761 21.376C22.7409 21.6214 22.2496 21.7503 21.75 21.7501" stroke="#4CAF50" stroke-width="1.45" stroke-linecap="round" stroke-linejoin="round"/>
</g>
<defs>
<clipPath id="clip0_0_2141">
<rect width="17.4" height="17.4" fill="white" transform="translate(8.7002 8.7002)"/>
</clipPath>
</defs>
</svg>
