<svg width="35" height="35" viewBox="0 0 35 35" fill="none" xmlns="http://www.w3.org/2000/svg">
<path d="M0 17.4C0 7.79025 7.79025 0 17.4 0C27.0098 0 34.8 7.79025 34.8 17.4C34.8 27.0098 27.0098 34.8 17.4 34.8C7.79025 34.8 0 27.0098 0 17.4Z" fill="#2B7FFF"/>
<g clip-path="url(#clip0_823_1619)">
<path d="M17.3999 24.6504C21.404 24.6504 24.6499 21.4045 24.6499 17.4004C24.6499 13.3963 21.404 10.1504 17.3999 10.1504C13.3958 10.1504 10.1499 13.3963 10.1499 17.4004C10.1499 21.4045 13.3958 24.6504 17.3999 24.6504Z" stroke="white" stroke-width="1.45" stroke-linecap="round" stroke-linejoin="round"/>
<path d="M17.4004 13.0498V17.3998L20.3004 18.8498" stroke="white" stroke-width="1.45" stroke-linecap="round" stroke-linejoin="round"/>
</g>
<defs>
<clipPath id="clip0_823_1619">
<rect width="17.4" height="17.4" fill="white" transform="translate(8.7002 8.7002)"/>
</clipPath>
</defs>
</svg>
