<svg width="35" height="35" viewBox="0 0 35 35" fill="none" xmlns="http://www.w3.org/2000/svg">
<path d="M0 17.4C0 7.79025 7.79025 0 17.4 0C27.0098 0 34.8 7.79025 34.8 17.4C34.8 27.0098 27.0098 34.8 17.4 34.8C7.79025 34.8 0 27.0098 0 17.4Z" fill="#00C950"/>
<g clip-path="url(#clip0_0_2078)">
<path d="M19.9211 18.0452L21.0195 24.2265C21.0318 24.2993 21.0215 24.3741 20.9902 24.4409C20.9588 24.5078 20.9078 24.5634 20.844 24.6005C20.7801 24.6375 20.7065 24.6542 20.6329 24.6483C20.5593 24.6423 20.4893 24.6141 20.4322 24.5673L17.8367 22.6192C17.7114 22.5256 17.5592 22.475 17.4028 22.475C17.2464 22.475 17.0942 22.5256 16.9689 22.6192L14.369 24.5665C14.312 24.6133 14.2421 24.6415 14.1686 24.6474C14.0951 24.6534 14.0215 24.6367 13.9577 24.5998C13.8939 24.5629 13.8429 24.5073 13.8115 24.4406C13.78 24.3739 13.7697 24.2992 13.7818 24.2265L14.8794 18.0452" stroke="white" stroke-width="1.45" stroke-linecap="round" stroke-linejoin="round"/>
<path d="M17.4003 18.8499C19.8027 18.8499 21.7503 16.9023 21.7503 14.4999C21.7503 12.0975 19.8027 10.1499 17.4003 10.1499C14.9979 10.1499 13.0503 12.0975 13.0503 14.4999C13.0503 16.9023 14.9979 18.8499 17.4003 18.8499Z" stroke="white" stroke-width="1.45" stroke-linecap="round" stroke-linejoin="round"/>
</g>
<defs>
<clipPath id="clip0_0_2078">
<rect width="17.4" height="17.4" fill="white" transform="translate(8.7002 8.69995)"/>
</clipPath>
</defs>
</svg>
