<svg width="35" height="35" viewBox="0 0 35 35" fill="none" xmlns="http://www.w3.org/2000/svg">
<path d="M0 8.7C0 3.89512 3.89512 0 8.7 0H26.1C30.9049 0 34.8 3.89512 34.8 8.7V26.1C34.8 30.9049 30.9049 34.8 26.1 34.8H8.7C3.89512 34.8 0 30.9049 0 26.1V8.7Z" fill="#E6EAFB"/>
<g clip-path="url(#clip0_0_2125)">
<path d="M17.4004 13.7754V23.9254" stroke="#2539A4" stroke-width="1.45" stroke-linecap="round" stroke-linejoin="round"/>
<path d="M10.8754 21.75C10.6831 21.75 10.4987 21.6736 10.3627 21.5377C10.2268 21.4017 10.1504 21.2173 10.1504 21.025V11.6C10.1504 11.4077 10.2268 11.2233 10.3627 11.0873C10.4987 10.9514 10.6831 10.875 10.8754 10.875H14.5004C15.2695 10.875 16.0071 11.1805 16.551 11.7244C17.0949 12.2682 17.4004 13.0059 17.4004 13.775C17.4004 13.0059 17.7059 12.2682 18.2498 11.7244C18.7936 11.1805 19.5313 10.875 20.3004 10.875H23.9254C24.1177 10.875 24.3021 10.9514 24.438 11.0873C24.574 11.2233 24.6504 11.4077 24.6504 11.6V21.025C24.6504 21.2173 24.574 21.4017 24.438 21.5377C24.3021 21.6736 24.1177 21.75 23.9254 21.75H19.5754C18.9985 21.75 18.4453 21.9792 18.0374 22.387C17.6295 22.7949 17.4004 23.3482 17.4004 23.925C17.4004 23.3482 17.1712 22.7949 16.7633 22.387C16.3555 21.9792 15.8022 21.75 15.2254 21.75H10.8754Z" stroke="#2539A4" stroke-width="1.45" stroke-linecap="round" stroke-linejoin="round"/>
</g>
<defs>
<clipPath id="clip0_0_2125">
<rect width="17.4" height="17.4" fill="white" transform="translate(8.7002 8.7002)"/>
</clipPath>
</defs>
</svg>
