<svg width="17" height="17" viewBox="0 0 17 17" fill="none" xmlns="http://www.w3.org/2000/svg">
<path d="M8.0951 0C3.63146 0 0 3.63146 0 8.0951C0 12.5587 3.63146 16.1902 8.0951 16.1902C12.5587 16.1902 16.1902 12.5587 16.1902 8.0951C16.1902 3.63146 12.5587 0 8.0951 0ZM8.90461 12.9522H7.28559V11.3331H8.90461V12.9522ZM9.69469 8.9977C9.53603 9.12561 9.38303 9.24784 9.26161 9.36927C8.93132 9.69874 8.90542 9.99826 8.90461 10.0112V10.1189H7.28559V9.98369C7.28559 9.88817 7.30907 9.0309 8.11615 8.22381C8.274 8.06596 8.4699 7.90568 8.67552 7.73892C9.2697 7.25726 9.65988 6.90593 9.65988 6.42184C9.65048 6.0129 9.48139 5.62387 9.1888 5.33801C8.89621 5.05214 8.50336 4.89215 8.0943 4.89225C7.68524 4.89236 7.29247 5.05256 7.00003 5.33857C6.70759 5.62459 6.5387 6.0137 6.52951 6.42265H4.91049C4.91049 4.66683 6.33927 3.23804 8.0951 3.23804C9.85093 3.23804 11.2797 4.66683 11.2797 6.42265C11.2797 7.71544 10.3253 8.4869 9.69469 8.9977Z" fill="#007DFE"/>
</svg>
