<svg width="17" height="17" viewBox="0 0 17 17" fill="none" xmlns="http://www.w3.org/2000/svg">
<path d="M8.90485 5.66672H7.28578V4.04766H8.90485M8.90485 12.143H7.28578V7.28578H8.90485M8.09531 0C7.03222 0 5.97954 0.209392 4.99737 0.616219C4.0152 1.02305 3.12278 1.61934 2.37106 2.37106C0.852897 3.88923 0 5.9483 0 8.09531C0 10.2423 0.852897 12.3014 2.37106 13.8196C3.12278 14.5713 4.0152 15.1676 4.99737 15.5744C5.97954 15.9812 7.03222 16.1906 8.09531 16.1906C10.2423 16.1906 12.3014 15.3377 13.8196 13.8196C15.3377 12.3014 16.1906 10.2423 16.1906 8.09531C16.1906 7.03222 15.9812 5.97954 15.5744 4.99737C15.1676 4.0152 14.5713 3.12278 13.8196 2.37106C13.0678 1.61934 12.1754 1.02305 11.1933 0.616219C10.2111 0.209392 9.15841 0 8.09531 0Z" fill="#FF8800"/>
</svg>
