<svg width="16" height="15" viewBox="0 0 16 15" fill="none" xmlns="http://www.w3.org/2000/svg">
<path d="M0.749687 14.8453C0.537523 14.8453 0.359688 14.7735 0.216184 14.63C0.0726798 14.4865 0.000618553 14.3084 0 14.0956V6.32409C0 6.10327 0.0720613 5.92203 0.216184 5.78038C0.360307 5.63873 0.538141 5.5676 0.749687 5.56698H3.10545C3.31761 5.56698 3.49544 5.63873 3.63895 5.78224C3.78245 5.92636 3.8542 6.1045 3.8542 6.31667V14.0891C3.8542 14.3093 3.78245 14.4902 3.63895 14.6319C3.49544 14.7741 3.31761 14.8453 3.10545 14.8453H0.749687ZM6.28697 14.8453C6.06801 14.8453 5.88739 14.7735 5.74512 14.63C5.60285 14.4859 5.53172 14.3078 5.53172 14.0956V0.74969C5.53172 0.537527 5.60347 0.359383 5.74698 0.21526C5.89048 0.0711375 6.06862 -0.000614588 6.28141 3.96509e-06H8.98789C9.20685 3.96509e-06 9.38747 0.071756 9.52974 0.21526C9.67201 0.359383 9.74314 0.537527 9.74314 0.74969V14.0956C9.74314 14.3084 9.67108 14.4865 9.52696 14.63C9.38283 14.7735 9.205 14.8453 8.99345 14.8453H6.28697ZM12.1694 14.8453C11.9566 14.8453 11.7785 14.7741 11.635 14.6319C11.4915 14.4896 11.4197 14.3133 11.4197 14.103V8.1649C11.4197 7.9546 11.4915 7.77831 11.635 7.63604C11.7785 7.49377 11.9566 7.42264 12.1694 7.42264H14.5242C14.7364 7.42264 14.9146 7.49377 15.0587 7.63604C15.2028 7.77831 15.2746 7.9546 15.2739 8.1649V14.103C15.2739 14.3133 15.2022 14.4896 15.0587 14.6319C14.9152 14.7741 14.737 14.8453 14.5242 14.8453H12.1694Z" fill="#9357FA"/>
</svg>
