<svg width="168" height="32" viewBox="0 0 168 32" fill="none" xmlns="http://www.w3.org/2000/svg">
<path d="M4.688 4.28V9.88H12.208V13.432H4.688V19.352H13.168V23H0.208V0.631998H13.168V4.28H4.688ZM27.0313 23L23.3833 17.496L20.1513 23H15.3513L21.1433 14.104L15.2873 5.272H20.3433L23.9593 10.744L27.2233 5.272H32.0233L26.1993 14.104L32.0873 23H27.0313ZM33.3685 14.072C33.3685 12.28 33.7205 10.6907 34.4245 9.304C35.1498 7.91733 36.1205 6.85067 37.3365 6.104C38.5738 5.35733 39.9498 4.984 41.4645 4.984C42.7872 4.984 43.9392 5.25067 44.9205 5.784C45.9232 6.31733 46.7232 6.98933 47.3205 7.8V5.272H51.8325V23H47.3205V20.408C46.7445 21.24 45.9445 21.9333 44.9205 22.488C43.9178 23.0213 42.7552 23.288 41.4325 23.288C39.9392 23.288 38.5738 22.904 37.3365 22.136C36.1205 21.368 35.1498 20.2907 34.4245 18.904C33.7205 17.496 33.3685 15.8853 33.3685 14.072ZM47.3205 14.136C47.3205 13.048 47.1072 12.12 46.6805 11.352C46.2538 10.5627 45.6778 9.96533 44.9525 9.56C44.2272 9.13333 43.4485 8.92 42.6165 8.92C41.7845 8.92 41.0165 9.12267 40.3125 9.528C39.6085 9.93333 39.0325 10.5307 38.5845 11.32C38.1578 12.088 37.9445 13.0053 37.9445 14.072C37.9445 15.1387 38.1578 16.0773 38.5845 16.888C39.0325 17.6773 39.6085 18.2853 40.3125 18.712C41.0378 19.1387 41.8058 19.352 42.6165 19.352C43.4485 19.352 44.2272 19.1493 44.9525 18.744C45.6778 18.3173 46.2538 17.72 46.6805 16.952C47.1072 16.1627 47.3205 15.224 47.3205 14.136ZM78.224 5.016C80.4 5.016 82.1493 5.688 83.472 7.032C84.816 8.35467 85.488 10.2107 85.488 12.6V23H81.008V13.208C81.008 11.8213 80.656 10.7653 79.952 10.04C79.248 9.29333 78.288 8.92 77.072 8.92C75.856 8.92 74.8853 9.29333 74.16 10.04C73.456 10.7653 73.104 11.8213 73.104 13.208V23H68.624V13.208C68.624 11.8213 68.272 10.7653 67.568 10.04C66.864 9.29333 65.904 8.92 64.688 8.92C63.4507 8.92 62.4693 9.29333 61.744 10.04C61.04 10.7653 60.688 11.8213 60.688 13.208V23H56.208V5.272H60.688V7.416C61.264 6.66933 62 6.08267 62.896 5.656C63.8133 5.22933 64.816 5.016 65.904 5.016C67.2907 5.016 68.528 5.31467 69.616 5.912C70.704 6.488 71.5467 7.32 72.144 8.408C72.72 7.384 73.552 6.56267 74.64 5.944C75.7493 5.32533 76.944 5.016 78.224 5.016ZM113.652 7.576C113.652 8.77067 113.364 9.89067 112.788 10.936C112.234 11.9813 111.348 12.824 110.132 13.464C108.938 14.104 107.423 14.424 105.588 14.424H101.844V23H97.3643V0.664H105.588C107.316 0.664 108.788 0.962666 110.004 1.56C111.22 2.15733 112.127 2.97867 112.724 4.024C113.343 5.06933 113.652 6.25333 113.652 7.576ZM105.396 10.808C106.634 10.808 107.551 10.5307 108.148 9.976C108.746 9.4 109.044 8.6 109.044 7.576C109.044 5.4 107.828 4.312 105.396 4.312H101.844V10.808H105.396ZM121.313 8.024C121.889 7.08533 122.636 6.34933 123.553 5.816C124.492 5.28267 125.558 5.016 126.753 5.016V9.72H125.569C124.161 9.72 123.094 10.0507 122.369 10.712C121.665 11.3733 121.313 12.5253 121.313 14.168V23H116.833V5.272H121.313V8.024ZM146.251 13.752C146.251 14.392 146.208 14.968 146.123 15.48H133.163C133.269 16.76 133.717 17.7627 134.507 18.488C135.296 19.2133 136.267 19.576 137.419 19.576C139.083 19.576 140.267 18.8613 140.971 17.432H145.803C145.291 19.1387 144.309 20.5467 142.859 21.656C141.408 22.744 139.627 23.288 137.515 23.288C135.808 23.288 134.272 22.9147 132.907 22.168C131.563 21.4 130.507 20.3227 129.739 18.936C128.992 17.5493 128.618 15.9493 128.618 14.136C128.618 12.3013 128.992 10.6907 129.739 9.304C130.485 7.91733 131.531 6.85067 132.875 6.104C134.219 5.35733 135.765 4.984 137.515 4.984C139.2 4.984 140.704 5.34667 142.027 6.072C143.371 6.79733 144.405 7.832 145.131 9.176C145.877 10.4987 146.251 12.024 146.251 13.752ZM141.611 12.472C141.589 11.32 141.173 10.4027 140.363 9.72C139.552 9.016 138.56 8.664 137.387 8.664C136.277 8.664 135.339 9.00533 134.571 9.688C133.824 10.3493 133.365 11.2773 133.195 12.472H141.611ZM154.001 7.832C154.577 7.02133 155.366 6.34933 156.369 5.816C157.393 5.26133 158.555 4.984 159.857 4.984C161.371 4.984 162.737 5.35733 163.953 6.104C165.19 6.85067 166.161 7.91733 166.865 9.304C167.59 10.6693 167.953 12.2587 167.953 14.072C167.953 15.8853 167.59 17.496 166.865 18.904C166.161 20.2907 165.19 21.368 163.953 22.136C162.737 22.904 161.371 23.288 159.857 23.288C158.555 23.288 157.403 23.0213 156.401 22.488C155.419 21.9547 154.619 21.2827 154.001 20.472V31.448H149.521V5.272H154.001V7.832ZM163.377 14.072C163.377 13.0053 163.153 12.088 162.705 11.32C162.278 10.5307 161.702 9.93333 160.977 9.528C160.273 9.12267 159.505 8.92 158.673 8.92C157.862 8.92 157.094 9.13333 156.369 9.56C155.665 9.96533 155.089 10.5627 154.641 11.352C154.214 12.1413 154.001 13.0693 154.001 14.136C154.001 15.2027 154.214 16.1307 154.641 16.92C155.089 17.7093 155.665 18.3173 156.369 18.744C157.094 19.1493 157.862 19.352 158.673 19.352C159.505 19.352 160.273 19.1387 160.977 18.712C161.702 18.2853 162.278 17.6773 162.705 16.888C163.153 16.0987 163.377 15.16 163.377 14.072Z" fill="#222C3B"/>
</svg>
