<svg width="16" height="16" viewBox="0 0 16 16" fill="none" xmlns="http://www.w3.org/2000/svg">
<path d="M11.7976 1.7057C11.8828 1.70575 11.9669 1.72494 12.0436 1.76184C12.1204 1.79874 12.1879 1.85242 12.2411 1.91891L12.2838 1.97918L14.7002 5.95913C14.7557 6.05048 14.7844 6.15564 14.7829 6.26254C14.7814 6.36945 14.7497 6.47376 14.6916 6.56351L14.6479 6.6215L8.39365 14.0128C8.34405 14.0714 8.2831 14.1193 8.21448 14.1537C8.14587 14.1881 8.071 14.2082 7.99439 14.2129C7.91779 14.2176 7.84103 14.2067 7.76874 14.1809C7.69645 14.1551 7.63013 14.115 7.57378 14.0629L7.52602 14.0128L1.27181 6.6215C1.20282 6.53989 1.15823 6.44049 1.14314 6.3347C1.12806 6.22891 1.14309 6.12101 1.18653 6.02337L1.2195 5.95913L3.6359 1.97918C3.68007 1.90633 3.74005 1.84434 3.8114 1.7978C3.88275 1.75125 3.96364 1.72133 4.04811 1.71024L4.12202 1.7057H11.7976ZM9.95833 6.82277H5.96076L7.95926 11.7534L9.95833 6.82277ZM12.9882 6.82277H11.1853L9.52679 10.9136L12.9882 6.82277ZM4.7338 6.82277H2.93088L6.39173 10.9125L4.7338 6.82277ZM5.50022 2.84282H4.44099L2.71483 5.68565H4.68774L5.50022 2.84282ZM9.23683 2.84282H6.68227L5.86979 5.68565H10.0493L9.23683 2.84282ZM11.4781 2.84282H10.4189L11.2313 5.68565H13.2043L11.4781 2.84282Z" fill="white"/>
</svg>
