<svg width="56" height="56" viewBox="0 0 56 56" fill="none" xmlns="http://www.w3.org/2000/svg">
<path fill-rule="evenodd" clip-rule="evenodd" d="M0 21.0025H2.40696V51.5517H24.552C24.9431 51.5517 25.2731 51.5822 25.5473 51.6329C25.3899 51.2978 25.1817 50.9931 24.9278 50.7291C24.3845 50.1705 23.6431 49.8252 22.8357 49.8252H5.06783H3.99129V48.7537V17.9659V16.8894H5.06783H15.4218C15.7671 17.646 16.1734 18.362 16.6456 19.0374H6.13928V47.6772H22.8357C23.9579 47.6772 24.9989 48.058 25.852 48.6979V37.6786C25.9587 37.6888 26.0704 37.6939 26.177 37.6939H29.823C29.9296 37.6939 30.0413 37.6888 30.148 37.6786V48.6979C31.0011 48.058 32.0421 47.6772 33.1643 47.6772H49.8607V19.0374H39.3544C39.8266 18.362 40.2329 17.646 40.5782 16.8894H50.9322H52.0087V17.9659V48.7537V49.8252H50.9322H33.1643C32.3569 49.8252 31.6155 50.1705 31.0722 50.7291C30.8183 50.9931 30.6101 51.2978 30.4527 51.6329C30.7269 51.5822 31.0569 51.5517 31.448 51.5517H53.593V21.0025H56V56H30.9148C29.3761 56 28 54.3649 28 52.9634C28 54.3649 26.6239 56 25.0852 56H0V21.0025ZM45.7882 39.4712H32.6311V41.0707H45.7882V39.4712ZM45.7882 22.3888H36.0588C35.6678 22.6681 35.2615 22.9322 34.84 23.1708V23.9833H45.7882V22.3888ZM45.7882 26.6594H34.84V28.259H45.7882V26.6594ZM45.7882 30.93H34.4744C34.3272 31.255 34.1393 31.5546 33.9159 31.8237C33.9311 32.0624 33.926 32.296 33.8905 32.5296H45.7882V30.93ZM45.7882 35.2006H33.0881C32.9917 35.5611 32.8342 35.8963 32.6311 36.2009V36.8001H45.7882V35.2006ZM10.2169 39.4712H23.3689V41.0707H10.2169V39.4712ZM10.2169 22.3888H19.9412C20.3322 22.6681 20.7385 22.9322 21.165 23.1708V23.9833H10.2169V22.3888ZM10.2169 26.6594H21.165V28.259H10.2169V26.6594ZM10.2169 30.93H21.5256C21.6728 31.255 21.8607 31.5546 22.0841 31.8237C22.0689 32.0573 22.074 32.2909 22.1095 32.5296H10.2169V30.93ZM10.2169 35.2006H22.9119C23.0083 35.5611 23.1658 35.8963 23.3689 36.2009V36.8001H10.2169V35.2006ZM25.461 32.7682H30.539C31.4835 32.7682 31.4835 31.3362 30.539 31.3362H25.461C24.5165 31.3362 24.5165 32.7682 25.461 32.7682ZM23.0794 12.9539C22.597 12.9844 22.1806 12.6188 22.1502 12.1415C22.1197 11.659 22.4802 11.2427 22.9626 11.2071C23.1911 11.1919 23.4298 11.2122 23.6685 11.2833C23.8868 11.3442 24.1052 11.4407 24.3134 11.588C24.6384 11.8165 24.9227 11.984 25.1513 12.0196C25.2833 12.0399 25.4204 11.9993 25.5727 11.8571C26.4207 11.1005 27.1824 10.7196 28 10.7196C28.8176 10.7196 29.5843 11.1005 30.4273 11.8571C30.5796 11.9993 30.7218 12.0399 30.8487 12.0196C31.0773 11.984 31.3616 11.8165 31.6866 11.588C31.8897 11.4407 32.1081 11.3442 32.3315 11.2833C32.5702 11.2122 32.8088 11.1919 33.0374 11.2071C33.5198 11.2427 33.8803 11.659 33.8498 12.1415C33.8194 12.6188 33.403 12.9844 32.9206 12.9539C32.8749 12.9489 32.8342 12.9539 32.7936 12.9641C32.7631 12.9742 32.7276 12.9895 32.6921 13.0149C32.1792 13.3805 31.6714 13.6547 31.123 13.741C30.473 13.8477 29.8585 13.6953 29.2543 13.1571C28.7465 12.7 28.3453 12.4664 28 12.4664C27.6547 12.4664 27.2535 12.7 26.7457 13.1571C26.1465 13.6953 25.527 13.8477 24.877 13.741C24.3337 13.6547 23.8208 13.3805 23.3079 13.0149C23.2775 12.9895 23.2419 12.9742 23.2064 12.9641C23.1658 12.9539 23.1251 12.9489 23.0794 12.9539ZM26.8981 18.0624H29.1019V27.6852H26.8981V18.0624ZM32.169 21.5002V29.2492C32.169 30.016 31.5444 30.6406 30.7777 30.6406H25.2223C24.4556 30.6406 23.8361 30.016 23.8361 29.2492V21.5002C19.7381 19.8498 16.8487 15.8382 16.8487 11.1513C16.8487 4.99166 21.8404 0 28 0C34.1596 0 39.1563 4.99166 39.1563 11.1513C39.1563 15.8382 36.2619 19.8498 32.169 21.5002ZM26.177 35.0229H29.823C30.214 35.0229 30.539 34.7029 30.539 34.3069V33.3877H25.461V34.3069C25.461 34.7029 25.786 35.0229 26.177 35.0229Z" fill="url(#paint0_linear_5_1382)"/>
<defs>
<linearGradient id="paint0_linear_5_1382" x1="28" y1="0" x2="28" y2="56" gradientUnits="userSpaceOnUse">
<stop stop-color="#F54B02"/>
<stop offset="1" stop-color="#FE7E01"/>
</linearGradient>
</defs>
</svg>
