<svg width="21" height="21" viewBox="0 0 21 21" fill="none" xmlns="http://www.w3.org/2000/svg">
<path d="M10.485 0C10.0043 0 9.61104 0.393255 9.61104 0.873931V1.80905C6.16789 2.23726 3.49352 5.18228 3.49352 8.73925C3.49352 9.73553 3.23135 10.7143 2.74194 11.5708L0.111426 16.1678C-0.0371421 16.4387 -0.0371421 16.7708 0.111426 17.0417C0.268734 17.3127 0.557145 17.4787 0.87176 17.4787H20.0982C20.4128 17.4787 20.7012 17.3127 20.8586 17.0417C21.0071 16.7708 21.0071 16.4387 20.8586 16.1678L18.2281 11.5797C17.861 10.933 17.6163 10.2251 17.5202 9.51726C17.223 9.57843 16.9172 9.61339 16.6026 9.61339C14.1905 9.61339 12.2329 7.65579 12.2329 5.24374C12.2329 4.13383 12.6437 3.12883 13.3253 2.35096C12.7048 2.0713 12.0494 1.88779 11.359 1.80912V0.874001C11.359 0.393325 10.9656 0 10.485 0Z" fill="#F75102"/>
<path d="M10.485 20.9744C11.9095 20.9744 13.1854 20.2839 13.9807 19.2265H6.98926C7.78455 20.2839 9.06046 20.9744 10.485 20.9744Z" fill="#F75102"/>
<path d="M19.2243 5.24356C19.2243 6.69101 18.05 7.86535 16.6025 7.86535C15.1551 7.86535 13.9807 6.69101 13.9807 5.24356C13.9807 3.7961 15.1551 2.62177 16.6025 2.62177C18.05 2.62177 19.2243 3.7961 19.2243 5.24356Z" fill="#F75102"/>
</svg>
