<svg width="21" height="24" viewBox="0 0 21 24" fill="none" xmlns="http://www.w3.org/2000/svg">
<path d="M15.0137 11.0969C15.7644 11.0969 16.4829 11.2041 17.1585 11.4079V10.0245C17.1585 8.84483 16.1934 7.87967 15.0137 7.87967H13.9413V5.73485C13.9413 2.775 11.5391 0.372803 8.57927 0.372803C5.61942 0.372803 3.21723 2.775 3.21723 5.73485V7.87967H2.14482C0.965168 7.87967 0 8.84483 0 10.0245V20.7486C0 21.9282 0.965168 22.8934 2.14482 22.8934H8.8581C8.07256 21.7685 7.61056 20.4498 7.52236 19.0807C7.43416 17.7115 7.72313 16.3444 8.35784 15.128C8.99255 13.9117 9.94869 12.8927 11.1222 12.182C12.2958 11.4712 13.6417 11.0959 15.0137 11.0969ZM5.36205 5.73485C5.36205 3.95465 6.79907 2.51762 8.57927 2.51762C10.3595 2.51762 11.7965 3.95465 11.7965 5.73485V7.87967H5.36205V5.73485Z" fill="#E29C75"/>
<path d="M15.0138 13.2418C12.0539 13.2418 9.65173 15.644 9.65173 18.6038C9.65173 21.5637 12.0539 23.9659 15.0138 23.9659C17.9736 23.9659 20.3758 21.5637 20.3758 18.6038C20.3758 15.644 17.9736 13.2418 15.0138 13.2418ZM17.1586 20.7486C16.9441 20.9631 16.6117 20.9631 16.3972 20.7486L14.6277 18.9791C14.5267 18.8801 14.4689 18.7452 14.4668 18.6038V15.9228C14.4668 15.6225 14.7028 15.3866 15.0031 15.3866C15.3033 15.3866 15.5393 15.6225 15.5393 15.9228V18.3786L17.1479 19.9872C17.3731 20.2017 17.3731 20.5341 17.1586 20.7486Z" fill="#E29C75"/>
</svg>
