<svg width="21" height="24" viewBox="0 0 21 24" fill="none" xmlns="http://www.w3.org/2000/svg">
<path d="M15.0137 10.7241C15.7644 10.7241 16.4829 10.8313 17.1585 11.0351V9.65168C17.1585 8.47203 16.1934 7.50686 15.0137 7.50686H13.9413V5.36204C13.9413 2.4022 11.5391 0 8.57927 0C5.61942 0 3.21723 2.4022 3.21723 5.36204V7.50686H2.14482C0.965168 7.50686 0 8.47203 0 9.65168V20.3758C0 21.5554 0.965168 22.5206 2.14482 22.5206H8.8581C8.07256 21.3957 7.61056 20.077 7.52236 18.7078C7.43416 17.3387 7.72313 15.9716 8.35784 14.7552C8.99255 13.5389 9.94869 12.5199 11.1222 11.8092C12.2958 11.0984 13.6417 10.7231 15.0137 10.7241ZM5.36205 5.36204C5.36205 3.58185 6.79907 2.14482 8.57927 2.14482C10.3595 2.14482 11.7965 3.58185 11.7965 5.36204V7.50686H5.36205V5.36204Z" fill="#E29C75"/>
<path d="M15.0138 12.8689C12.0539 12.8689 9.65173 15.2711 9.65173 18.231C9.65173 21.1908 12.0539 23.593 15.0138 23.593C17.9736 23.593 20.3758 21.1908 20.3758 18.231C20.3758 15.2711 17.9736 12.8689 15.0138 12.8689ZM17.1586 20.3758C16.9441 20.5903 16.6117 20.5903 16.3972 20.3758L14.6277 18.6063C14.5267 18.5073 14.4689 18.3724 14.4668 18.231V15.55C14.4668 15.2497 14.7028 15.0138 15.0031 15.0138C15.3033 15.0138 15.5393 15.2497 15.5393 15.55V18.0058L17.1479 19.6144C17.3731 19.8289 17.3731 20.1613 17.1586 20.3758Z" fill="#E29C75"/>
</svg>
