<svg width="60" height="56" viewBox="0 0 60 56" fill="none" xmlns="http://www.w3.org/2000/svg">
<path d="M21.8176 27.7397C21.4253 27.5748 21.2779 27.1851 21.5778 26.8703C22.9569 27.35 24.5559 26.9702 25.7752 25.8609C27.0145 24.7316 27.5441 23.1425 27.1543 21.7034C27.0319 21.0988 27.759 20.5366 28.3136 20.4542C29.1681 20.2918 30.3025 20.7515 31.3718 21.3237C35.5692 23.8721 38.7695 21.7384 41.5454 18.0856C41.8053 19.3549 41.9352 20.664 41.9352 22.0033H43.934C44.0464 4.61347 24.0388 -6.18959 9.54458 3.86448C-6.50586 14.8831 -1.38128 39.915 17.9497 43.6202V33.996C17.9497 31.2577 19.529 28.889 21.8176 27.7397ZM17.87 23.6822C16.0611 23.7122 14.2322 22.8427 12.6232 22.0632C11.9936 21.7534 11.274 21.8533 10.7143 22.333C9.39512 23.4749 9.83485 25.3287 10.8642 26.4405C11.179 26.8753 11.5788 27.31 11.3839 27.8097C8.56565 27.5898 5.75731 29.1888 4.47802 31.7074C-0.511471 23.2549 2.26688 11.3498 10.1246 5.89325C11.2639 8.03199 13.8324 9.38112 16.2409 8.93141C16.878 8.89893 17.3053 9.79342 17.2502 10.3606C17.1828 11.3425 16.4207 12.3444 15.7811 13.2888C14.2171 15.2701 13.46 18.7779 16.5506 19.9446C17.4301 20.2444 18.3096 20.0945 18.9492 19.5248C19.3689 19.1651 19.9486 19.3949 20.1684 19.5148C22.7718 21.019 20.1087 23.7546 17.87 23.6822Z" fill="url(#paint0_linear_5_1476)"/>
<path d="M44.9337 50.9859H33.2006C32.7509 50.9859 32.3611 51.2857 32.2412 51.7254C32.0313 52.4949 31.4517 53.1345 30.6521 53.5443C30.7146 52.6848 30.7596 51.0233 29.5328 50.9859H24.9456C23.2966 50.9859 21.9474 49.6367 21.9474 47.9877V33.9961C21.9474 32.3472 23.2966 30.998 24.9456 30.998H27.9438V28.9992H24.9456C22.1873 28.9992 19.9486 31.2378 19.9486 33.9961V47.9877C19.9486 50.746 22.1873 52.9846 24.9456 52.9846H28.6833C28.8433 53.9791 27.6614 54.5612 28.1337 55.4631C28.3111 55.8054 28.6983 56.0453 29.0831 55.9928C31.2618 55.8429 33.1007 54.6636 33.9002 52.9847H44.9335C45.9229 52.9847 46.8423 52.6948 47.6218 52.2051C46.9023 51.8653 46.2427 51.4255 45.6831 50.8859C45.4432 50.9559 45.1935 50.9859 44.9337 50.9859Z" fill="url(#paint1_linear_5_1476)"/>
<path d="M54.9274 24.0018H34.9395C32.1836 24.0018 29.9425 26.243 29.9425 28.9988V42.9903C29.9425 45.7462 32.1836 47.9873 34.9395 47.9873H45.9754C46.7699 49.6713 48.6088 50.8481 50.7849 51.0005C51.1772 51.0279 51.5544 50.8206 51.7393 50.4708C52.2041 49.5613 51.0273 48.9742 51.1847 47.9898H54.9249C57.6808 47.9898 59.9219 45.7486 59.9219 42.9928V29.0013C59.9219 26.2454 57.6808 24.0043 54.9249 24.0043L54.9274 24.0018ZM34.9395 28.9988H53.9283C55.235 29.0188 55.2475 30.9751 53.9283 30.9976H34.9395C33.6303 30.9776 33.6228 29.0213 34.9395 28.9988ZM48.931 42.9903H39.9368C38.6251 42.9703 38.6201 41.0141 39.9368 40.9915H48.931C50.2427 41.0115 50.2477 42.9678 48.931 42.9903ZM53.928 38.9928H34.9392C34.387 38.9928 33.9398 38.5455 33.9398 37.9934C33.9398 37.4412 34.387 36.994 34.9392 36.994H53.928C55.2347 37.014 55.2472 38.9702 53.928 38.9928ZM53.928 34.9952H34.9392C34.387 34.9952 33.9398 34.5479 33.9398 33.9958C33.9398 33.4436 34.387 32.9964 34.9392 32.9964H53.928C55.2347 33.0164 55.2472 34.9727 53.928 34.9952Z" fill="url(#paint2_linear_5_1476)"/>
<defs>
<linearGradient id="paint0_linear_5_1476" x1="21.9672" y1="0" x2="21.9672" y2="43.6202" gradientUnits="userSpaceOnUse">
<stop stop-color="#F54B02"/>
<stop offset="1" stop-color="#FE7E01"/>
</linearGradient>
<linearGradient id="paint1_linear_5_1476" x1="33.7852" y1="28.9992" x2="33.7852" y2="56" gradientUnits="userSpaceOnUse">
<stop stop-color="#F54B02"/>
<stop offset="1" stop-color="#FE7E01"/>
</linearGradient>
<linearGradient id="paint2_linear_5_1476" x1="44.9322" y1="24.0018" x2="44.9322" y2="51.0029" gradientUnits="userSpaceOnUse">
<stop stop-color="#F54B02"/>
<stop offset="1" stop-color="#FE7E01"/>
</linearGradient>
</defs>
</svg>
