<svg width="28" height="28" viewBox="0 0 28 28" fill="none" xmlns="http://www.w3.org/2000/svg">
<circle cx="14" cy="14" r="14" fill="#ECF2FE"/>
<path d="M14.0001 8.1666C17.2218 8.1666 19.8334 10.7782 19.8334 13.9999C19.8334 17.2217 17.2218 19.8333 14.0001 19.8333C10.7783 19.8333 8.16675 17.2217 8.16675 13.9999C8.16675 10.7782 10.7783 8.1666 14.0001 8.1666ZM14.0001 10.4999C13.8454 10.4999 13.697 10.5614 13.5876 10.6708C13.4782 10.7802 13.4167 10.9286 13.4167 11.0833V13.9999C13.4168 14.1546 13.4783 14.303 13.5877 14.4123L15.3377 16.1623C15.4477 16.2686 15.595 16.3274 15.748 16.3261C15.9009 16.3247 16.0472 16.2634 16.1554 16.1552C16.2635 16.0471 16.3249 15.9008 16.3262 15.7478C16.3276 15.5949 16.2688 15.4475 16.1625 15.3375L14.5834 13.7584V11.0833C14.5834 10.9286 14.522 10.7802 14.4126 10.6708C14.3032 10.5614 14.1548 10.4999 14.0001 10.4999Z" fill="#0A87E4"/>
</svg>
