<svg width="22" height="19" viewBox="0 0 22 19" fill="none" xmlns="http://www.w3.org/2000/svg">
<path d="M10.7038 0.30083C10.5235 0.301182 10.3431 0.305313 10.1629 0.31322C9.77566 0.382062 9.59686 0.551599 9.49977 0.74565C9.39279 0.959603 9.39696 1.2475 9.51624 1.50349C9.63561 1.75962 9.85452 1.969 10.1602 2.0472C10.4658 2.12541 10.8866 2.08499 11.4397 1.73146L11.8818 2.4234C11.1869 2.86756 10.5144 2.98473 9.95697 2.84208C9.39956 2.69943 8.98593 2.30948 8.77219 1.85082C8.57081 1.4187 8.53381 0.911717 8.72694 0.461493C6.84148 0.766387 5.13425 1.48943 3.8229 2.50709C3.39192 2.97665 3.34974 3.52238 3.53865 3.89511C3.75085 4.31361 4.2508 4.61912 5.25071 4.3028L5.4992 5.08538C4.2436 5.48253 3.20867 5.05955 2.80699 4.26713C2.70902 4.07396 2.64919 3.86488 2.62568 3.6493C2.41419 3.90025 2.22326 4.16147 2.05456 4.43324L2.06009 4.43588C1.68165 5.29766 1.67304 5.89458 1.82391 6.28246C1.97486 6.67039 2.29113 6.91685 2.77813 7.05269C3.75203 7.3242 5.32909 6.99659 6.43962 6.16718C6.91498 5.81221 7.3656 4.95125 7.40483 4.28356C7.42438 3.94967 7.35365 3.6859 7.21394 3.51746C7.07423 3.34902 6.85053 3.22298 6.38743 3.22777L6.37922 2.40684C7.01567 2.40025 7.53245 2.6157 7.84548 2.99308C8.15845 3.37046 8.25229 3.85645 8.2244 4.33162C8.1686 5.28202 7.67106 6.27223 6.9311 6.82481C5.61856 7.80513 3.88497 8.21336 2.55846 7.84353C1.94393 7.67219 1.39996 7.29938 1.11966 6.72192C0.700281 8.71849 1.30959 10.5731 2.46919 11.8565C2.62076 12.0244 2.78208 12.183 2.95114 12.3301C2.83015 11.9836 2.7747 11.6228 2.78771 11.2717C2.81099 10.6423 3.05491 10.0263 3.54423 9.60089C3.94551 9.25179 4.49986 9.05041 5.16285 9.05173C5.20704 9.05173 5.25221 9.05252 5.29737 9.05436C5.40061 9.05875 5.50662 9.06772 5.61457 9.08186L5.50737 9.89603C4.82254 9.80605 4.37808 9.96289 4.08236 10.22C3.7867 10.4772 3.62357 10.8621 3.60732 11.3019C3.57481 12.1816 4.13759 13.2088 5.35101 13.5068L5.34961 13.515C6.54423 13.743 7.87733 13.5314 9.2157 12.7146C9.21649 12.7141 9.21759 12.7138 9.21842 12.7133C9.49695 12.5178 9.64699 12.3263 9.72092 12.1613C9.80813 11.9666 9.80629 11.797 9.74421 11.6149C9.62014 11.2507 9.17572 10.8763 8.76811 10.772C8.10903 10.6033 7.69035 10.835 7.49406 11.1111C7.29776 11.387 7.28581 11.6581 7.58878 11.8936L7.08487 12.5416C6.46159 12.0569 6.42183 11.2022 6.82544 10.6347C7.12823 10.209 7.65951 9.91742 8.3 9.89879C8.327 9.89783 8.35401 9.89739 8.38102 9.89748C8.57019 9.89879 8.76719 9.9248 8.97134 9.97699C9.65252 10.1514 10.2823 10.6482 10.5213 11.3499C10.5851 11.538 10.613 11.7364 10.6037 11.9348C11.3378 11.5597 12.112 11.2266 12.9006 10.9765C14.2254 10.3711 14.7998 9.30974 14.7774 8.41606C14.7548 7.51575 14.1981 6.75804 12.9157 6.63125L12.9967 5.81436C14.6076 5.97366 15.5651 7.12567 15.597 8.39541C15.6156 9.13524 15.3442 9.90508 14.798 10.5604C15.5041 10.4813 16.2058 10.4947 16.8861 10.6319C16.7476 10.3476 16.6805 10.0398 16.6899 9.734C16.7196 8.7659 17.543 7.86277 18.8371 7.84902C18.9255 7.84817 19.0139 7.85137 19.102 7.8586L19.0361 8.67685C17.941 8.58907 17.5292 9.16389 17.5108 9.76005C17.4927 10.3496 17.8862 11.0096 19.0142 11.0972C20.2575 11.1082 21.1488 10.4339 21.5856 9.43188C22.1703 8.09034 21.893 6.07905 20.0548 4.23954C20.02 4.2047 19.9855 4.16956 19.9505 4.1352C19.9312 4.29903 19.8892 4.45938 19.8256 4.61161C19.5071 5.3756 18.761 5.89128 17.9859 6.03534C16.9168 6.234 16.0401 5.80043 15.6355 5.13885C15.2309 4.47735 15.3371 3.54189 16.0652 3.0494L16.5252 3.73036C16.1336 3.99519 16.1175 4.35377 16.3357 4.7105C16.5539 5.06732 17.0461 5.37635 17.8362 5.22952C18.3329 5.13718 18.8861 4.73177 19.0677 4.29595C19.1586 4.07804 19.1762 3.86269 19.0856 3.61631C19.012 3.4162 18.8577 3.18735 18.5707 2.94633L18.5625 2.93952C17.3624 2.03508 16.0874 1.38461 14.7953 0.955649C14.796 0.957055 14.7972 0.958285 14.798 0.959735C15.0917 1.49659 15.1135 2.10559 14.9326 2.6443C14.5709 3.72175 13.4358 4.57066 12.0316 4.52374C11.7264 4.51364 11.4359 4.66081 11.1887 4.948C10.9415 5.23519 10.761 5.65589 10.7192 6.10401C10.6355 7.00024 11.0233 7.98811 12.5355 8.47638L12.2826 9.25759C10.4778 8.67487 9.78594 7.25663 9.90061 6.02853C9.95803 5.41457 10.1952 4.84401 10.5665 4.41268C10.9378 3.98135 11.466 3.68326 12.0589 3.7029C13.115 3.73814 13.9183 3.08415 14.1539 2.38215C14.2718 2.03121 14.2565 1.68199 14.077 1.3539C13.9027 1.0353 13.5573 0.720257 12.9389 0.490357C12.2008 0.362176 11.453 0.298759 10.7038 0.30083ZM15.1506 11.3692C13.3091 11.519 11.3123 12.3972 9.64668 13.4148C7.18732 14.9172 4.59923 14.5892 2.76293 13.2268C3.48536 15.8119 6.04524 16.3367 8.71583 15.6828C8.98307 15.5824 9.24566 15.3956 9.46958 15.1543C9.77962 14.8201 10.0042 14.3868 10.075 14.0285L10.8809 14.1878C10.7735 14.7318 10.4821 15.2714 10.0723 15.7131C9.67906 16.1369 9.1668 16.4754 8.57441 16.5643C8.27716 17.2264 8.03254 17.8682 7.93325 18.3175C7.77729 19.023 8.55736 19.2939 8.90663 18.5824C9.74232 16.8803 10.9218 15.3652 12.3952 14.0588C13.5402 13.3052 14.5218 12.376 15.1506 11.3692H15.1506Z" fill="#EE7B59"/>
</svg>
