<svg width="21" height="19" viewBox="0 0 21 19" fill="none" xmlns="http://www.w3.org/2000/svg">
<path d="M9.71677 4.91548e-05C9.53639 0.000401102 9.35604 0.00453176 9.17583 0.0124383C8.7886 0.081281 8.6098 0.250818 8.51271 0.444869C8.40573 0.658822 8.4099 0.946714 8.52918 1.20271C8.64855 1.45884 8.86746 1.66822 9.1731 1.74642C9.47879 1.82462 9.89958 1.78421 10.4526 1.43068L10.8947 2.12262C10.1998 2.56678 9.52738 2.68395 8.96991 2.5413C8.41249 2.39865 7.99887 2.0087 7.78513 1.55004C7.58375 1.11792 7.54675 0.610935 7.73988 0.160712C5.85442 0.465606 4.14719 1.18865 2.83584 2.20631C2.40485 2.67587 2.36268 3.2216 2.55159 3.59433C2.76379 4.01283 3.26374 4.31834 4.26365 4.00202L4.51214 4.7846C3.25654 5.18175 2.22161 4.75877 1.81993 3.96635C1.72196 3.77318 1.66213 3.5641 1.63862 3.34852C1.42713 3.59947 1.2362 3.86069 1.06749 4.13246L1.07303 4.1351C0.694593 4.99688 0.685982 5.5938 0.836847 5.98168C0.9878 6.36961 1.30407 6.61607 1.79107 6.75191C2.76497 7.02342 4.34203 6.69581 5.45256 5.8664C5.92792 5.51142 6.37854 4.65047 6.41777 3.98278C6.43732 3.64889 6.36659 3.38512 6.22688 3.21668C6.08717 3.04824 5.86347 2.9222 5.40037 2.92699L5.39216 2.10606C6.02861 2.09947 6.54539 2.31491 6.85841 2.6923C7.17139 3.06968 7.26523 3.55567 7.23734 4.03084C7.18154 4.98124 6.684 5.97145 5.94404 6.52403C4.6315 7.50435 2.89791 7.91257 1.5714 7.54275C0.956872 7.37141 0.412895 6.99859 0.132604 6.42114C-0.286779 8.41771 0.322525 10.2723 1.48213 11.5557C1.6337 11.7236 1.79502 11.8822 1.96408 12.0293C1.84308 11.6828 1.78764 11.322 1.80065 10.9709C1.82393 10.3415 2.06785 9.72555 2.55717 9.3001C2.95845 8.95101 3.5128 8.74963 4.17579 8.75094C4.21998 8.75094 4.26515 8.75173 4.31031 8.75358C4.41355 8.75797 4.51956 8.76694 4.6275 8.78108L4.52031 9.59525C3.83548 9.50527 3.39102 9.66211 3.0953 9.91925C2.79963 10.1764 2.63651 10.5613 2.62026 11.0011C2.58775 11.8808 3.15053 12.908 4.36395 13.206L4.36255 13.2143C5.55717 13.4423 6.89027 13.2306 8.22864 12.4138C8.22943 12.4133 8.23053 12.4131 8.23136 12.4125C8.50989 12.217 8.65992 12.0255 8.73386 11.8606C8.82107 11.6658 8.81923 11.4963 8.75715 11.3141C8.63308 10.9499 8.18866 10.5755 7.78105 10.4712C7.12197 10.3025 6.70329 10.5343 6.507 10.8103C6.3107 11.0862 6.29875 11.3573 6.60172 11.5928L6.09781 12.2408C5.47453 11.7561 5.43477 10.9014 5.83838 10.3339C6.14117 9.90827 6.67245 9.61664 7.31294 9.59801C7.33994 9.59704 7.36695 9.5966 7.39396 9.59669C7.58313 9.59801 7.78013 9.62402 7.98428 9.67621C8.66546 9.85063 9.29524 10.3474 9.53423 11.0491C9.59799 11.2372 9.62595 11.4356 9.61665 11.634C10.3508 11.2589 11.125 10.9258 11.9135 10.6757C13.2384 10.0703 13.8128 9.00896 13.7904 8.11528C13.7677 7.21496 13.211 6.45725 11.9287 6.33046L12.0097 5.51358C13.6205 5.67288 14.5781 6.82488 14.61 8.09463C14.6285 8.83446 14.3572 9.6043 13.8109 10.2596C14.517 10.1806 15.2187 10.194 15.899 10.3311C15.7606 10.0468 15.6934 9.73899 15.7028 9.43322C15.7325 8.46512 16.556 7.56199 17.85 7.54824C17.9384 7.54739 18.0268 7.55059 18.1149 7.55782L18.049 8.37607C16.9539 8.28829 16.5421 8.8631 16.5238 9.45927C16.5057 10.0489 16.8992 10.7088 18.0272 10.7964C19.2705 10.8074 20.1618 10.1331 20.5985 9.13109C21.1833 7.78956 20.9059 5.77827 19.0677 3.93876C19.033 3.90392 18.9984 3.86878 18.9634 3.83442C18.9441 3.99825 18.9021 4.1586 18.8385 4.31083C18.52 5.07482 17.7739 5.5905 16.9989 5.73456C15.9298 5.93322 15.0531 5.49965 14.6485 4.83807C14.2438 4.17657 14.3501 3.24111 15.0781 2.74862L15.5381 3.42958C15.1465 3.69441 15.1304 4.05299 15.3486 4.40972C15.5668 4.76654 16.059 5.07557 16.8492 4.92874C17.3459 4.8364 17.899 4.43098 18.0806 3.99517C18.1716 3.77726 18.1891 3.5619 18.0985 3.31553C18.025 3.11541 17.8707 2.88657 17.5837 2.64555L17.5754 2.63874C16.3754 1.7343 15.1003 1.08383 13.8082 0.654868C13.809 0.656274 13.8102 0.657504 13.811 0.658954C14.1046 1.19581 14.1264 1.80481 13.9455 2.34351C13.5838 3.42097 12.4487 4.26988 11.0446 4.22296C10.7393 4.21286 10.4488 4.36003 10.2017 4.64722C9.95445 4.93441 9.77397 5.35511 9.73211 5.80323C9.64841 6.69946 10.0363 7.68733 11.5485 8.1756L11.2956 8.95681C9.49069 8.37409 8.79888 6.95585 8.91355 5.72775C8.97097 5.11379 9.20816 4.54323 9.57944 4.1119C9.95072 3.68057 10.479 3.38248 11.0718 3.40212C12.128 3.43735 12.9312 2.78337 13.1669 2.08137C13.2847 1.73043 13.2694 1.38121 13.09 1.05312C12.9157 0.734518 12.5703 0.419476 11.9519 0.189576C11.2138 0.0613944 10.4659 -0.00202253 9.71677 4.91548e-05ZM14.1635 11.0684C12.3221 11.2182 10.3253 12.0964 8.65962 13.114C6.20026 14.6164 3.61217 14.2885 1.77587 12.926C2.4983 15.5112 5.05818 16.0359 7.72877 15.382C7.99601 15.2816 8.2586 15.0948 8.48252 14.8535C8.79256 14.5193 9.01719 14.086 9.08792 13.7277L9.89382 13.887C9.78641 14.431 9.495 14.9706 9.08519 15.4123C8.692 15.8361 8.17974 16.1746 7.58735 16.2635C7.2901 16.9256 7.04548 17.5674 6.94619 18.0167C6.79023 18.7222 7.5703 18.9931 7.91957 18.2816C8.75526 16.5795 9.93477 15.0644 11.4081 13.758C12.5532 13.0044 13.5347 12.0752 14.1636 11.0684H14.1635Z" fill="#858786"/>
</svg>
