<svg width="35" height="35" viewBox="0 0 35 35" fill="none" xmlns="http://www.w3.org/2000/svg">
<path d="M10.2125 25.2625C12.7209 24.1875 14.3334 23.2917 15.05 22.575C16.125 21.5 12.9 21.5 12.9 16.125C12.9 12.5417 14.3334 10.75 17.2 10.75C20.0667 10.75 21.5 12.5417 21.5 16.125C21.5 21.5 18.275 21.5 19.35 22.575C20.0667 23.2917 21.6792 24.1875 24.1875 25.2625" fill="#EBE6F0"/>
<path d="M10.2125 25.2625C12.7209 24.1875 14.3334 23.2917 15.05 22.575C16.125 21.5 12.9 21.5 12.9 16.125C12.9 12.5417 14.3334 10.75 17.2 10.75C20.0667 10.75 21.5 12.5417 21.5 16.125C21.5 21.5 18.275 21.5 19.35 22.575C20.0667 23.2917 21.6792 24.1875 24.1875 25.2625C24.1875 25.2625 21.5 27.95 17.2 27.95C12.9 27.95 10.2125 25.2625 10.2125 25.2625Z" fill="#EBE6F0"/>
<path d="M10.2125 25.2625C12.7209 24.1875 14.3334 23.2917 15.05 22.575C16.125 21.5 12.9 21.5 12.9 16.125C12.9 12.5417 14.3334 10.75 17.2 10.75C20.0667 10.75 21.5 12.5417 21.5 16.125C21.5 21.5 18.275 21.5 19.35 22.575C20.0667 23.2917 21.6792 24.1875 24.1875 25.2625C24.1875 25.2625 21.5 27.95 17.2 27.95C12.9 27.95 10.2125 25.2625 10.2125 25.2625Z" stroke="#89838F" stroke-width="1.6125" stroke-linecap="round" stroke-linejoin="round"/>
<path d="M17.2 27.9501C23.137 27.9501 27.95 23.1371 27.95 17.2001C27.95 11.263 23.137 6.45005 17.2 6.45005C11.2629 6.45005 6.44995 11.263 6.44995 17.2001C6.44995 23.1371 11.2629 27.9501 17.2 27.9501Z" stroke="#89838F" stroke-width="1.6125" stroke-linecap="round" stroke-linejoin="round"/>
</svg>
