<svg width="26" height="26" viewBox="0 0 26 26" fill="none" xmlns="http://www.w3.org/2000/svg">
<path d="M3.13672 12.5478C3.13672 14.4091 3.68865 16.2286 4.72273 17.7762C5.7568 19.3238 7.22658 20.53 8.94618 21.2423C10.6658 21.9545 12.558 22.1409 14.3835 21.7778C16.209 21.4147 17.8859 20.5184 19.202 19.2023C20.5181 17.8861 21.4144 16.2093 21.7776 14.3838C22.1407 12.5582 21.9543 10.666 21.242 8.94642C20.5297 7.22682 19.3235 5.75705 17.7759 4.72297C16.2283 3.6889 14.4088 3.13696 12.5475 3.13696C9.91665 3.14686 7.39143 4.17343 5.49988 6.00204L3.13672 8.3652" stroke="#99A1AF" stroke-width="2.0913" stroke-linecap="round" stroke-linejoin="round"/>
<path d="M3.13672 3.13696V8.3652H8.36496" stroke="#99A1AF" stroke-width="2.0913" stroke-linecap="round" stroke-linejoin="round"/>
</svg>
