<svg width="18" height="18" viewBox="0 0 18 18" fill="none" xmlns="http://www.w3.org/2000/svg">
<g clip-path="url(#clip0_0_2070)">
<path d="M8.69971 15.95C12.7038 15.95 15.9497 12.704 15.9497 8.69995C15.9497 4.69589 12.7038 1.44995 8.69971 1.44995C4.69564 1.44995 1.44971 4.69589 1.44971 8.69995C1.44971 12.704 4.69564 15.95 8.69971 15.95Z" stroke="#2539A4" stroke-width="1.45" stroke-linecap="round" stroke-linejoin="round"/>
<path d="M8.7001 13.0501C11.1025 13.0501 13.0501 11.1025 13.0501 8.7001C13.0501 6.29766 11.1025 4.3501 8.7001 4.3501C6.29766 4.3501 4.3501 6.29766 4.3501 8.7001C4.3501 11.1025 6.29766 13.0501 8.7001 13.0501Z" stroke="#2539A4" stroke-width="1.45" stroke-linecap="round" stroke-linejoin="round"/>
<path d="M8.7 10.15C9.50081 10.15 10.15 9.50081 10.15 8.7C10.15 7.89919 9.50081 7.25 8.7 7.25C7.89919 7.25 7.25 7.89919 7.25 8.7C7.25 9.50081 7.89919 10.15 8.7 10.15Z" stroke="#2539A4" stroke-width="1.45" stroke-linecap="round" stroke-linejoin="round"/>
</g>
<defs>
<clipPath id="clip0_0_2070">
<rect width="17.4" height="17.4" fill="white"/>
</clipPath>
</defs>
</svg>
