<svg width="26" height="26" viewBox="0 0 26 26" fill="none" xmlns="http://www.w3.org/2000/svg">
<path d="M15.6845 21.9586V13.5934C15.6845 13.3161 15.5744 13.0501 15.3783 12.854C15.1822 12.6579 14.9162 12.5477 14.6389 12.5477H10.4563C10.179 12.5477 9.913 12.6579 9.71691 12.854C9.52081 13.0501 9.41064 13.3161 9.41064 13.5934V21.9586" stroke="#2539A4" stroke-width="2.0913" stroke-linecap="round" stroke-linejoin="round"/>
<path d="M3.13672 10.4564C3.13665 10.1522 3.20294 9.85165 3.33099 9.5757C3.45903 9.29975 3.64574 9.05505 3.87808 8.85868L11.1976 2.58584C11.5751 2.26683 12.0533 2.0918 12.5475 2.0918C13.0418 2.0918 13.52 2.26683 13.8975 2.58584L21.217 8.85868C21.4494 9.05505 21.6361 9.29975 21.7641 9.5757C21.8921 9.85165 21.9584 10.1522 21.9584 10.4564V19.8673C21.9584 20.4219 21.738 20.9538 21.3458 21.346C20.9537 21.7382 20.4217 21.9586 19.8671 21.9586H5.22801C4.67337 21.9586 4.14144 21.7382 3.74924 21.346C3.35705 20.9538 3.13672 20.4219 3.13672 19.8673V10.4564Z" stroke="#2539A4" stroke-width="2.0913" stroke-linecap="round" stroke-linejoin="round"/>
</svg>
