<svg width="24" height="24" viewBox="0 0 24 24" fill="none" xmlns="http://www.w3.org/2000/svg">
<path d="M15.9969 19.9959V3.99922C15.9969 3.46889 15.7862 2.96029 15.4112 2.5853C15.0362 2.2103 14.5276 1.99963 13.9973 1.99963H9.99812C9.4678 1.99963 8.95919 2.2103 8.5842 2.5853C8.20921 2.96029 7.99854 3.46889 7.99854 3.99922V19.9959" stroke="white" stroke-width="1.99958" stroke-linecap="round" stroke-linejoin="round"/>
<path d="M19.9958 5.99878H3.99909C2.89476 5.99878 1.99951 6.89402 1.99951 7.99836V17.9963C1.99951 19.1006 2.89476 19.9959 3.99909 19.9959H19.9958C21.1001 19.9959 21.9953 19.1006 21.9953 17.9963V7.99836C21.9953 6.89402 21.1001 5.99878 19.9958 5.99878Z" stroke="white" stroke-width="1.99958" stroke-linecap="round" stroke-linejoin="round"/>
</svg>
