<svg width="35" height="35" viewBox="0 0 35 35" fill="none" xmlns="http://www.w3.org/2000/svg">
<path d="M25.8 10.7499C25.8 9.56249 24.8374 8.5999 23.65 8.5999H22.575C21.9813 8.5999 21.5 9.08119 21.5 9.6749C21.5 10.2686 21.0187 10.7499 20.425 10.7499H13.975C13.3813 10.7499 12.9 10.2686 12.9 9.6749C12.9 9.08119 12.4187 8.5999 11.825 8.5999H10.75C9.56256 8.5999 8.59998 9.56249 8.59998 10.7499V25.7999C8.59998 26.9873 9.56256 27.9499 10.75 27.9499H23.65C24.8374 27.9499 25.8 26.9873 25.8 25.7999V10.7499Z" stroke="#F25A0A" stroke-width="1.6125" stroke-linecap="round" stroke-linejoin="round"/>
<path d="M12.9 7.52505C12.9 6.93134 13.3813 6.45005 13.975 6.45005H20.425C21.0187 6.45005 21.5 6.93134 21.5 7.52505V9.67505C21.5 10.2688 21.0187 10.7501 20.425 10.7501H13.975C13.3813 10.7501 12.9 10.2688 12.9 9.67505V7.52505Z" fill="#EBE6F0" stroke="#F25A0A" stroke-width="1.6125"/>
<path d="M12.9 15.0499H21.5M12.9 18.2749H17.2" stroke="#F25A0A" stroke-width="1.6125" stroke-linecap="round" stroke-linejoin="round"/>
</svg>
