<svg width="26" height="26" viewBox="0 0 26 26" fill="none" xmlns="http://www.w3.org/2000/svg">
<path d="M6.2739 9.41085H4.70543C4.01212 9.41085 3.34721 9.13544 2.85697 8.6452C2.36672 8.15495 2.09131 7.49004 2.09131 6.79674C2.09131 6.10343 2.36672 5.43852 2.85697 4.94827C3.34721 4.45803 4.01212 4.18262 4.70543 4.18262H6.2739" stroke="#99A1AF" stroke-width="2.0913" stroke-linecap="round" stroke-linejoin="round"/>
<path d="M18.8218 9.41085H20.3902C21.0836 9.41085 21.7485 9.13544 22.2387 8.6452C22.729 8.15495 23.0044 7.49004 23.0044 6.79674C23.0044 6.10343 22.729 5.43852 22.2387 4.94827C21.7485 4.45803 21.0836 4.18262 20.3902 4.18262H18.8218" stroke="#99A1AF" stroke-width="2.0913" stroke-linecap="round" stroke-linejoin="round"/>
<path d="M4.18262 23.0043H20.913" stroke="#99A1AF" stroke-width="2.0913" stroke-linecap="round" stroke-linejoin="round"/>
<path d="M10.4563 15.3292V17.776C10.4563 18.3511 9.96482 18.8008 9.442 19.0413C8.20814 19.6059 7.31934 21.1639 7.31934 23.0043" stroke="#99A1AF" stroke-width="2.0913" stroke-linecap="round" stroke-linejoin="round"/>
<path d="M14.6392 15.3292V17.776C14.6392 18.3511 15.1306 18.8008 15.6534 19.0413C16.8873 19.6059 17.7761 21.1639 17.7761 23.0043" stroke="#99A1AF" stroke-width="2.0913" stroke-linecap="round" stroke-linejoin="round"/>
<path d="M18.8217 2.09131H6.27393V9.41084C6.27393 11.0748 6.93492 12.6706 8.1115 13.8471C9.28809 15.0237 10.8839 15.6847 12.5478 15.6847C14.2117 15.6847 15.8075 15.0237 16.9841 13.8471C18.1607 12.6706 18.8217 11.0748 18.8217 9.41084V2.09131Z" stroke="#99A1AF" stroke-width="2.0913" stroke-linecap="round" stroke-linejoin="round"/>
</svg>
