<svg width="277" height="34" viewBox="0 0 277 34" fill="none" xmlns="http://www.w3.org/2000/svg">
<path d="M5.64281 20.064H13.0348V24.42H-0.000188265V1.25401H5.64281V20.064ZM32.0944 14.916C32.0944 15.444 32.0614 15.994 31.9954 16.566H19.2244C19.3124 17.71 19.6754 18.59 20.3134 19.206C20.9734 19.8 21.7764 20.097 22.7224 20.097C24.1304 20.097 25.1094 19.503 25.6594 18.315H31.6654C31.3574 19.525 30.7964 20.614 29.9824 21.582C29.1904 22.55 28.1894 23.309 26.9794 23.859C25.7694 24.409 24.4164 24.684 22.9204 24.684C21.1164 24.684 19.5104 24.299 18.1024 23.529C16.6944 22.759 15.5944 21.659 14.8024 20.229C14.0104 18.799 13.6144 17.127 13.6144 15.213C13.6144 13.299 13.9994 11.627 14.7694 10.197C15.5614 8.76701 16.6614 7.66701 18.0694 6.89701C19.4774 6.12701 21.0944 5.74201 22.9204 5.74201C24.7024 5.74201 26.2864 6.11601 27.6724 6.86401C29.0584 7.61201 30.1364 8.67901 30.9064 10.065C31.6984 11.451 32.0944 13.068 32.0944 14.916ZM26.3194 13.431C26.3194 12.463 25.9894 11.693 25.3294 11.121C24.6694 10.549 23.8444 10.263 22.8544 10.263C21.9084 10.263 21.1054 10.538 20.4454 11.088C19.8074 11.638 19.4114 12.419 19.2574 13.431H26.3194ZM42.3643 19.14L46.3573 6.00601H52.3633L45.8293 24.42H38.8663L32.3323 6.00601H38.3713L42.3643 19.14ZM71.1066 14.916C71.1066 15.444 71.0736 15.994 71.0076 16.566H58.2366C58.3246 17.71 58.6876 18.59 59.3256 19.206C59.9856 19.8 60.7886 20.097 61.7346 20.097C63.1426 20.097 64.1216 19.503 64.6716 18.315H70.6776C70.3696 19.525 69.8086 20.614 68.9946 21.582C68.2026 22.55 67.2016 23.309 65.9916 23.859C64.7816 24.409 63.4286 24.684 61.9326 24.684C60.1286 24.684 58.5226 24.299 57.1146 23.529C55.7066 22.759 54.6066 21.659 53.8146 20.229C53.0226 18.799 52.6266 17.127 52.6266 15.213C52.6266 13.299 53.0116 11.627 53.7816 10.197C54.5736 8.76701 55.6736 7.66701 57.0816 6.89701C58.4896 6.12701 60.1066 5.74201 61.9326 5.74201C63.7146 5.74201 65.2986 6.11601 66.6846 6.86401C68.0706 7.61201 69.1486 8.67901 69.9186 10.065C70.7106 11.451 71.1066 13.068 71.1066 14.916ZM65.3316 13.431C65.3316 12.463 65.0016 11.693 64.3416 11.121C63.6816 10.549 62.8566 10.263 61.8666 10.263C60.9206 10.263 60.1176 10.538 59.4576 11.088C58.8196 11.638 58.4236 12.419 58.2696 13.431H65.3316ZM78.7365 1.3113e-05V24.42H73.0935V1.3113e-05H78.7365Z" fill="#2539A4"/>
<path d="M86.8821 12.804C86.8821 10.516 87.3771 8.48101 88.3671 6.69901C89.3571 4.89501 90.7321 3.49801 92.4921 2.50801C94.2741 1.49601 96.2871 0.990012 98.5311 0.990012C101.281 0.990012 103.635 1.71601 105.593 3.16801C107.551 4.62001 108.86 6.60001 109.52 9.10801H103.316C102.854 8.14001 102.194 7.40301 101.336 6.89701C100.5 6.39101 99.5431 6.13801 98.4651 6.13801C96.7271 6.13801 95.3191 6.74301 94.2411 7.95301C93.1631 9.16301 92.6241 10.78 92.6241 12.804C92.6241 14.828 93.1631 16.445 94.2411 17.655C95.3191 18.865 96.7271 19.47 98.4651 19.47C99.5431 19.47 100.5 19.217 101.336 18.711C102.194 18.205 102.854 17.468 103.316 16.5H109.52C108.86 19.008 107.551 20.988 105.593 22.44C103.635 23.87 101.281 24.585 98.5311 24.585C96.2871 24.585 94.2741 24.09 92.4921 23.1C90.7321 22.088 89.3571 20.691 88.3671 18.909C87.3771 17.127 86.8821 15.092 86.8821 12.804ZM120.368 24.684C118.564 24.684 116.936 24.299 115.484 23.529C114.054 22.759 112.921 21.659 112.085 20.229C111.271 18.799 110.864 17.127 110.864 15.213C110.864 13.321 111.282 11.66 112.118 10.23C112.954 8.77801 114.098 7.66701 115.55 6.89701C117.002 6.12701 118.63 5.74201 120.434 5.74201C122.238 5.74201 123.866 6.12701 125.318 6.89701C126.77 7.66701 127.914 8.77801 128.75 10.23C129.586 11.66 130.004 13.321 130.004 15.213C130.004 17.105 129.575 18.777 128.717 20.229C127.881 21.659 126.726 22.759 125.252 23.529C123.8 24.299 122.172 24.684 120.368 24.684ZM120.368 19.8C121.446 19.8 122.359 19.404 123.107 18.612C123.877 17.82 124.262 16.687 124.262 15.213C124.262 13.739 123.888 12.606 123.14 11.814C122.414 11.022 121.512 10.626 120.434 10.626C119.334 10.626 118.421 11.022 117.695 11.814C116.969 12.584 116.606 13.717 116.606 15.213C116.606 16.687 116.958 17.82 117.662 18.612C118.388 19.404 119.29 19.8 120.368 19.8ZM155.504 5.80801C157.792 5.80801 159.607 6.50101 160.949 7.88701C162.313 9.27301 162.995 11.198 162.995 13.662V24.42H157.385V14.421C157.385 13.233 157.066 12.32 156.428 11.682C155.812 11.022 154.954 10.692 153.854 10.692C152.754 10.692 151.885 11.022 151.247 11.682C150.631 12.32 150.323 13.233 150.323 14.421V24.42H144.713V14.421C144.713 13.233 144.394 12.32 143.756 11.682C143.14 11.022 142.282 10.692 141.182 10.692C140.082 10.692 139.213 11.022 138.575 11.682C137.959 12.32 137.651 13.233 137.651 14.421V24.42H132.008V6.00601H137.651V8.31601C138.223 7.54601 138.971 6.94101 139.895 6.50101C140.819 6.03901 141.864 5.80801 143.03 5.80801C144.416 5.80801 145.648 6.10501 146.726 6.69901C147.826 7.29301 148.684 8.14001 149.3 9.24001C149.938 8.22801 150.807 7.40301 151.907 6.76501C153.007 6.12701 154.206 5.80801 155.504 5.80801ZM171.594 8.61301C172.144 7.75501 172.903 7.06201 173.871 6.53401C174.839 6.00601 175.972 5.74201 177.27 5.74201C178.788 5.74201 180.163 6.12701 181.395 6.89701C182.627 7.66701 183.595 8.76701 184.299 10.197C185.025 11.627 185.388 13.288 185.388 15.18C185.388 17.072 185.025 18.744 184.299 20.196C183.595 21.626 182.627 22.737 181.395 23.529C180.163 24.299 178.788 24.684 177.27 24.684C175.994 24.684 174.861 24.42 173.871 23.892C172.903 23.364 172.144 22.682 171.594 21.846V33.198H165.951V6.00601H171.594V8.61301ZM179.646 15.18C179.646 13.772 179.25 12.672 178.458 11.88C177.688 11.066 176.731 10.659 175.587 10.659C174.465 10.659 173.508 11.066 172.716 11.88C171.946 12.694 171.561 13.805 171.561 15.213C171.561 16.621 171.946 17.732 172.716 18.546C173.508 19.36 174.465 19.767 175.587 19.767C176.709 19.767 177.666 19.36 178.458 18.546C179.25 17.71 179.646 16.588 179.646 15.18ZM193.002 1.3113e-05V24.42H187.359V1.3113e-05H193.002ZM213.459 14.916C213.459 15.444 213.426 15.994 213.36 16.566H200.589C200.677 17.71 201.04 18.59 201.678 19.206C202.338 19.8 203.141 20.097 204.087 20.097C205.495 20.097 206.474 19.503 207.024 18.315H213.03C212.722 19.525 212.161 20.614 211.347 21.582C210.555 22.55 209.554 23.309 208.344 23.859C207.134 24.409 205.781 24.684 204.285 24.684C202.481 24.684 200.875 24.299 199.467 23.529C198.059 22.759 196.959 21.659 196.167 20.229C195.375 18.799 194.979 17.127 194.979 15.213C194.979 13.299 195.364 11.627 196.134 10.197C196.926 8.76701 198.026 7.66701 199.434 6.89701C200.842 6.12701 202.459 5.74201 204.285 5.74201C206.067 5.74201 207.651 6.11601 209.037 6.86401C210.423 7.61201 211.501 8.67901 212.271 10.065C213.063 11.451 213.459 13.068 213.459 14.916ZM207.684 13.431C207.684 12.463 207.354 11.693 206.694 11.121C206.034 10.549 205.209 10.263 204.219 10.263C203.273 10.263 202.47 10.538 201.81 11.088C201.172 11.638 200.776 12.419 200.622 13.431H207.684ZM225.709 19.635V24.42H222.838C220.792 24.42 219.197 23.925 218.053 22.935C216.909 21.923 216.337 20.284 216.337 18.018V10.692H214.093V6.00601H216.337V1.51801H221.98V6.00601H225.676V10.692H221.98V18.084C221.98 18.634 222.112 19.03 222.376 19.272C222.64 19.514 223.08 19.635 223.696 19.635H225.709ZM245.22 14.916C245.22 15.444 245.187 15.994 245.121 16.566H232.35C232.438 17.71 232.801 18.59 233.439 19.206C234.099 19.8 234.902 20.097 235.848 20.097C237.256 20.097 238.235 19.503 238.785 18.315H244.791C244.483 19.525 243.922 20.614 243.108 21.582C242.316 22.55 241.315 23.309 240.105 23.859C238.895 24.409 237.542 24.684 236.046 24.684C234.242 24.684 232.636 24.299 231.228 23.529C229.82 22.759 228.72 21.659 227.928 20.229C227.136 18.799 226.74 17.127 226.74 15.213C226.74 13.299 227.125 11.627 227.895 10.197C228.687 8.76701 229.787 7.66701 231.195 6.89701C232.603 6.12701 234.22 5.74201 236.046 5.74201C237.828 5.74201 239.412 6.11601 240.798 6.86401C242.184 7.61201 243.262 8.67901 244.032 10.065C244.824 11.451 245.22 13.068 245.22 14.916ZM239.445 13.431C239.445 12.463 239.115 11.693 238.455 11.121C237.795 10.549 236.97 10.263 235.98 10.263C235.034 10.263 234.231 10.538 233.571 11.088C232.933 11.638 232.537 12.419 232.383 13.431H239.445ZM246.085 15.18C246.085 13.288 246.437 11.627 247.141 10.197C247.867 8.76701 248.846 7.66701 250.078 6.89701C251.31 6.12701 252.685 5.74201 254.203 5.74201C255.413 5.74201 256.513 5.99501 257.503 6.50101C258.515 7.00701 259.307 7.68901 259.879 8.54701V1.3113e-05H265.522V24.42H259.879V21.78C259.351 22.66 258.592 23.364 257.602 23.892C256.634 24.42 255.501 24.684 254.203 24.684C252.685 24.684 251.31 24.299 250.078 23.529C248.846 22.737 247.867 21.626 247.141 20.196C246.437 18.744 246.085 17.072 246.085 15.18ZM259.879 15.213C259.879 13.805 259.483 12.694 258.691 11.88C257.921 11.066 256.975 10.659 255.853 10.659C254.731 10.659 253.774 11.066 252.982 11.88C252.212 12.672 251.827 13.772 251.827 15.18C251.827 16.588 252.212 17.71 252.982 18.546C253.774 19.36 254.731 19.767 255.853 19.767C256.975 19.767 257.921 19.36 258.691 18.546C259.483 17.732 259.879 16.621 259.879 15.213ZM276.04 0.429012L275.38 16.236H270.595L269.935 0.429012H276.04ZM273.07 24.684C272.08 24.684 271.266 24.398 270.628 23.826C270.012 23.232 269.704 22.506 269.704 21.648C269.704 20.768 270.012 20.031 270.628 19.437C271.266 18.843 272.08 18.546 273.07 18.546C274.038 18.546 274.83 18.843 275.446 19.437C276.084 20.031 276.403 20.768 276.403 21.648C276.403 22.506 276.084 23.232 275.446 23.826C274.83 24.398 274.038 24.684 273.07 24.684Z" fill="#30373D"/>
</svg>
