<svg width="193" height="27" viewBox="0 0 193 27" fill="none" xmlns="http://www.w3.org/2000/svg">
<path d="M5.64267 22.077H13.0347V26.433H-0.000325594V3.26701H5.64267V22.077ZM32.0942 16.929C32.0942 17.457 32.0612 18.007 31.9952 18.579H19.2242C19.3122 19.723 19.6752 20.603 20.3132 21.219C20.9732 21.813 21.7762 22.11 22.7222 22.11C24.1302 22.11 25.1092 21.516 25.6592 20.328H31.6652C31.3572 21.538 30.7962 22.627 29.9822 23.595C29.1902 24.563 28.1892 25.322 26.9792 25.872C25.7692 26.422 24.4162 26.697 22.9202 26.697C21.1162 26.697 19.5102 26.312 18.1022 25.542C16.6942 24.772 15.5942 23.672 14.8022 22.242C14.0102 20.812 13.6142 19.14 13.6142 17.226C13.6142 15.312 13.9992 13.64 14.7692 12.21C15.5612 10.78 16.6612 9.68001 18.0692 8.91001C19.4772 8.14001 21.0942 7.75501 22.9202 7.75501C24.7022 7.75501 26.2862 8.12901 27.6722 8.87701C29.0582 9.62501 30.1362 10.692 30.9062 12.078C31.6982 13.464 32.0942 15.081 32.0942 16.929ZM26.3192 15.444C26.3192 14.476 25.9892 13.706 25.3292 13.134C24.6692 12.562 23.8442 12.276 22.8542 12.276C21.9082 12.276 21.1052 12.551 20.4452 13.101C19.8072 13.651 19.4112 14.432 19.2572 15.444H26.3192ZM42.3642 21.153L46.3572 8.01901H52.3632L45.8292 26.433H38.8662L32.3322 8.01901H38.3712L42.3642 21.153ZM71.1064 16.929C71.1064 17.457 71.0734 18.007 71.0074 18.579H58.2364C58.3244 19.723 58.6874 20.603 59.3254 21.219C59.9854 21.813 60.7884 22.11 61.7344 22.11C63.1424 22.11 64.1214 21.516 64.6714 20.328H70.6774C70.3694 21.538 69.8084 22.627 68.9944 23.595C68.2024 24.563 67.2014 25.322 65.9914 25.872C64.7814 26.422 63.4284 26.697 61.9324 26.697C60.1284 26.697 58.5224 26.312 57.1144 25.542C55.7064 24.772 54.6064 23.672 53.8144 22.242C53.0224 20.812 52.6264 19.14 52.6264 17.226C52.6264 15.312 53.0114 13.64 53.7814 12.21C54.5734 10.78 55.6734 9.68001 57.0814 8.91001C58.4894 8.14001 60.1064 7.75501 61.9324 7.75501C63.7144 7.75501 65.2984 8.12901 66.6844 8.87701C68.0704 9.62501 69.1484 10.692 69.9184 12.078C70.7104 13.464 71.1064 15.081 71.1064 16.929ZM65.3314 15.444C65.3314 14.476 65.0014 13.706 64.3414 13.134C63.6814 12.562 62.8564 12.276 61.8664 12.276C60.9204 12.276 60.1174 12.551 59.4574 13.101C58.8194 13.651 58.4234 14.432 58.2694 15.444H65.3314ZM78.7364 2.01301V26.433H73.0934V2.01301H78.7364Z" fill="#2539A4"/>
<path d="M102.92 3.26701V7.78801H93.482V12.672H100.544V17.061H93.482V26.433H87.839V3.26701H102.92ZM103.774 17.193C103.774 15.301 104.126 13.64 104.83 12.21C105.556 10.78 106.535 9.68001 107.767 8.91001C108.999 8.14001 110.374 7.75501 111.892 7.75501C113.19 7.75501 114.323 8.01901 115.291 8.54701C116.281 9.07501 117.04 9.76801 117.568 10.626V8.01901H123.211V26.433H117.568V23.826C117.018 24.684 116.248 25.377 115.258 25.905C114.29 26.433 113.157 26.697 111.859 26.697C110.363 26.697 108.999 26.312 107.767 25.542C106.535 24.75 105.556 23.639 104.83 22.209C104.126 20.757 103.774 19.085 103.774 17.193ZM117.568 17.226C117.568 15.818 117.172 14.707 116.38 13.893C115.61 13.079 114.664 12.672 113.542 12.672C112.42 12.672 111.463 13.079 110.671 13.893C109.901 14.685 109.516 15.785 109.516 17.193C109.516 18.601 109.901 19.723 110.671 20.559C111.463 21.373 112.42 21.78 113.542 21.78C114.664 21.78 115.61 21.373 116.38 20.559C117.172 19.745 117.568 18.634 117.568 17.226ZM129.141 6.10501C128.151 6.10501 127.337 5.81901 126.699 5.24701C126.083 4.65301 125.775 3.92701 125.775 3.06901C125.775 2.18901 126.083 1.46301 126.699 0.891012C127.337 0.297012 128.151 1.19805e-05 129.141 1.19805e-05C130.109 1.19805e-05 130.901 0.297012 131.517 0.891012C132.155 1.46301 132.474 2.18901 132.474 3.06901C132.474 3.92701 132.155 4.65301 131.517 5.24701C130.901 5.81901 130.109 6.10501 129.141 6.10501ZM131.946 8.01901V26.433H126.303V8.01901H131.946ZM140.689 2.01301V26.433H135.046V2.01301H140.689ZM161.146 16.929C161.146 17.457 161.113 18.007 161.047 18.579H148.276C148.364 19.723 148.727 20.603 149.365 21.219C150.025 21.813 150.828 22.11 151.774 22.11C153.182 22.11 154.161 21.516 154.711 20.328H160.717C160.409 21.538 159.848 22.627 159.034 23.595C158.242 24.563 157.241 25.322 156.031 25.872C154.821 26.422 153.468 26.697 151.972 26.697C150.168 26.697 148.562 26.312 147.154 25.542C145.746 24.772 144.646 23.672 143.854 22.242C143.062 20.812 142.666 19.14 142.666 17.226C142.666 15.312 143.051 13.64 143.821 12.21C144.613 10.78 145.713 9.68001 147.121 8.91001C148.529 8.14001 150.146 7.75501 151.972 7.75501C153.754 7.75501 155.338 8.12901 156.724 8.87701C158.11 9.62501 159.188 10.692 159.958 12.078C160.75 13.464 161.146 15.081 161.146 16.929ZM155.371 15.444C155.371 14.476 155.041 13.706 154.381 13.134C153.721 12.562 152.896 12.276 151.906 12.276C150.96 12.276 150.157 12.551 149.497 13.101C148.859 13.651 148.463 14.432 148.309 15.444H155.371ZM162.011 17.193C162.011 15.301 162.363 13.64 163.067 12.21C163.793 10.78 164.772 9.68001 166.004 8.91001C167.236 8.14001 168.611 7.75501 170.129 7.75501C171.339 7.75501 172.439 8.00801 173.429 8.51401C174.441 9.02001 175.233 9.70201 175.805 10.56V2.01301H181.448V26.433H175.805V23.793C175.277 24.673 174.518 25.377 173.528 25.905C172.56 26.433 171.427 26.697 170.129 26.697C168.611 26.697 167.236 26.312 166.004 25.542C164.772 24.75 163.793 23.639 163.067 22.209C162.363 20.757 162.011 19.085 162.011 17.193ZM175.805 17.226C175.805 15.818 175.409 14.707 174.617 13.893C173.847 13.079 172.901 12.672 171.779 12.672C170.657 12.672 169.7 13.079 168.908 13.893C168.138 14.685 167.753 15.785 167.753 17.193C167.753 18.601 168.138 19.723 168.908 20.559C169.7 21.373 170.657 21.78 171.779 21.78C172.901 21.78 173.847 21.373 174.617 20.559C175.409 19.745 175.805 18.634 175.805 17.226ZM191.966 2.44201L191.306 18.249H186.521L185.861 2.44201H191.966ZM188.996 26.697C188.006 26.697 187.192 26.411 186.554 25.839C185.938 25.245 185.63 24.519 185.63 23.661C185.63 22.781 185.938 22.044 186.554 21.45C187.192 20.856 188.006 20.559 188.996 20.559C189.964 20.559 190.756 20.856 191.372 21.45C192.01 22.044 192.329 22.781 192.329 23.661C192.329 24.519 192.01 25.245 191.372 25.839C190.756 26.411 189.964 26.697 188.996 26.697Z" fill="#30373D"/>
</svg>
