<svg width="193" height="28" viewBox="0 0 193 28" fill="none" xmlns="http://www.w3.org/2000/svg">
<path d="M5.95713 22.644H13.3491V27H0.314128V3.834H5.95713V22.644ZM32.4087 17.496C32.4087 18.024 32.3757 18.574 32.3097 19.146H19.5387C19.6267 20.29 19.9897 21.17 20.6277 21.786C21.2877 22.38 22.0907 22.677 23.0367 22.677C24.4447 22.677 25.4237 22.083 25.9737 20.895H31.9797C31.6717 22.105 31.1107 23.194 30.2967 24.162C29.5047 25.13 28.5037 25.889 27.2937 26.439C26.0837 26.989 24.7307 27.264 23.2347 27.264C21.4307 27.264 19.8247 26.879 18.4167 26.109C17.0087 25.339 15.9087 24.239 15.1167 22.809C14.3247 21.379 13.9287 19.707 13.9287 17.793C13.9287 15.879 14.3137 14.207 15.0837 12.777C15.8757 11.347 16.9757 10.247 18.3837 9.477C19.7917 8.707 21.4087 8.322 23.2347 8.322C25.0167 8.322 26.6007 8.696 27.9867 9.444C29.3727 10.192 30.4507 11.259 31.2207 12.645C32.0127 14.031 32.4087 15.648 32.4087 17.496ZM26.6337 16.011C26.6337 15.043 26.3037 14.273 25.6437 13.701C24.9837 13.129 24.1587 12.843 23.1687 12.843C22.2227 12.843 21.4197 13.118 20.7597 13.668C20.1217 14.218 19.7257 14.999 19.5717 16.011H26.6337ZM42.6787 21.72L46.6717 8.586H52.6777L46.1437 27H39.1807L32.6467 8.586H38.6857L42.6787 21.72ZM71.4209 17.496C71.4209 18.024 71.3879 18.574 71.3219 19.146H58.5509C58.6389 20.29 59.0019 21.17 59.6399 21.786C60.2999 22.38 61.1029 22.677 62.0489 22.677C63.4569 22.677 64.4359 22.083 64.9859 20.895H70.9919C70.6839 22.105 70.1229 23.194 69.3089 24.162C68.5169 25.13 67.5159 25.889 66.3059 26.439C65.0959 26.989 63.7429 27.264 62.2469 27.264C60.4429 27.264 58.8369 26.879 57.4289 26.109C56.0209 25.339 54.9209 24.239 54.1289 22.809C53.3369 21.379 52.9409 19.707 52.9409 17.793C52.9409 15.879 53.3259 14.207 54.0959 12.777C54.8879 11.347 55.9879 10.247 57.3959 9.477C58.8039 8.707 60.4209 8.322 62.2469 8.322C64.0289 8.322 65.6129 8.696 66.9989 9.444C68.3849 10.192 69.4629 11.259 70.2329 12.645C71.0249 14.031 71.4209 15.648 71.4209 17.496ZM65.6459 16.011C65.6459 15.043 65.3159 14.273 64.6559 13.701C63.9959 13.129 63.1709 12.843 62.1809 12.843C61.2349 12.843 60.4319 13.118 59.7719 13.668C59.1339 14.218 58.7379 14.999 58.5839 16.011H65.6459ZM79.0508 2.58V27H73.4078V2.58H79.0508Z" fill="#EE7B59"/>
<path d="M103.234 3.834V8.355H93.7964V13.239H100.858V17.628H93.7964V27H88.1534V3.834H103.234ZM104.088 17.76C104.088 15.868 104.44 14.207 105.144 12.777C105.87 11.347 106.849 10.247 108.081 9.477C109.313 8.707 110.688 8.322 112.206 8.322C113.504 8.322 114.637 8.586 115.605 9.114C116.595 9.642 117.354 10.335 117.882 11.193V8.586H123.525V27H117.882V24.393C117.332 25.251 116.562 25.944 115.572 26.472C114.604 27 113.471 27.264 112.173 27.264C110.677 27.264 109.313 26.879 108.081 26.109C106.849 25.317 105.87 24.206 105.144 22.776C104.44 21.324 104.088 19.652 104.088 17.76ZM117.882 17.793C117.882 16.385 117.486 15.274 116.694 14.46C115.924 13.646 114.978 13.239 113.856 13.239C112.734 13.239 111.777 13.646 110.985 14.46C110.215 15.252 109.83 16.352 109.83 17.76C109.83 19.168 110.215 20.29 110.985 21.126C111.777 21.94 112.734 22.347 113.856 22.347C114.978 22.347 115.924 21.94 116.694 21.126C117.486 20.312 117.882 19.201 117.882 17.793ZM129.456 6.672C128.466 6.672 127.652 6.386 127.014 5.814C126.398 5.22 126.09 4.494 126.09 3.636C126.09 2.756 126.398 2.03 127.014 1.458C127.652 0.863998 128.466 0.566998 129.456 0.566998C130.424 0.566998 131.216 0.863998 131.832 1.458C132.47 2.03 132.789 2.756 132.789 3.636C132.789 4.494 132.47 5.22 131.832 5.814C131.216 6.386 130.424 6.672 129.456 6.672ZM132.261 8.586V27H126.618V8.586H132.261ZM141.003 2.58V27H135.36V2.58H141.003ZM161.461 17.496C161.461 18.024 161.428 18.574 161.362 19.146H148.591C148.679 20.29 149.042 21.17 149.68 21.786C150.34 22.38 151.143 22.677 152.089 22.677C153.497 22.677 154.476 22.083 155.026 20.895H161.032C160.724 22.105 160.163 23.194 159.349 24.162C158.557 25.13 157.556 25.889 156.346 26.439C155.136 26.989 153.783 27.264 152.287 27.264C150.483 27.264 148.877 26.879 147.469 26.109C146.061 25.339 144.961 24.239 144.169 22.809C143.377 21.379 142.981 19.707 142.981 17.793C142.981 15.879 143.366 14.207 144.136 12.777C144.928 11.347 146.028 10.247 147.436 9.477C148.844 8.707 150.461 8.322 152.287 8.322C154.069 8.322 155.653 8.696 157.039 9.444C158.425 10.192 159.503 11.259 160.273 12.645C161.065 14.031 161.461 15.648 161.461 17.496ZM155.686 16.011C155.686 15.043 155.356 14.273 154.696 13.701C154.036 13.129 153.211 12.843 152.221 12.843C151.275 12.843 150.472 13.118 149.812 13.668C149.174 14.218 148.778 14.999 148.624 16.011H155.686ZM162.326 17.76C162.326 15.868 162.678 14.207 163.382 12.777C164.108 11.347 165.087 10.247 166.319 9.477C167.551 8.707 168.926 8.322 170.444 8.322C171.654 8.322 172.754 8.575 173.744 9.081C174.756 9.587 175.548 10.269 176.12 11.127V2.58H181.763V27H176.12V24.36C175.592 25.24 174.833 25.944 173.843 26.472C172.875 27 171.742 27.264 170.444 27.264C168.926 27.264 167.551 26.879 166.319 26.109C165.087 25.317 164.108 24.206 163.382 22.776C162.678 21.324 162.326 19.652 162.326 17.76ZM176.12 17.793C176.12 16.385 175.724 15.274 174.932 14.46C174.162 13.646 173.216 13.239 172.094 13.239C170.972 13.239 170.015 13.646 169.223 14.46C168.453 15.252 168.068 16.352 168.068 17.76C168.068 19.168 168.453 20.29 169.223 21.126C170.015 21.94 170.972 22.347 172.094 22.347C173.216 22.347 174.162 21.94 174.932 21.126C175.724 20.312 176.12 19.201 176.12 17.793ZM192.28 3.009L191.62 18.816H186.835L186.175 3.009H192.28ZM189.31 27.264C188.32 27.264 187.506 26.978 186.868 26.406C186.252 25.812 185.944 25.086 185.944 24.228C185.944 23.348 186.252 22.611 186.868 22.017C187.506 21.423 188.32 21.126 189.31 21.126C190.278 21.126 191.07 21.423 191.686 22.017C192.324 22.611 192.643 23.348 192.643 24.228C192.643 25.086 192.324 25.812 191.686 26.406C191.07 26.978 190.278 27.264 189.31 27.264Z" fill="#30373D"/>
</svg>
