<svg width="277" height="34" viewBox="0 0 277 34" fill="none" xmlns="http://www.w3.org/2000/svg">
<path d="M5.92016 20.644H13.3122V25H0.277155V1.834H5.92016V20.644ZM32.3717 15.496C32.3717 16.024 32.3387 16.574 32.2727 17.146H19.5017C19.5897 18.29 19.9527 19.17 20.5907 19.786C21.2507 20.38 22.0537 20.677 22.9997 20.677C24.4077 20.677 25.3867 20.083 25.9367 18.895H31.9427C31.6347 20.105 31.0737 21.194 30.2597 22.162C29.4677 23.13 28.4667 23.889 27.2567 24.439C26.0467 24.989 24.6937 25.264 23.1977 25.264C21.3937 25.264 19.7877 24.879 18.3797 24.109C16.9717 23.339 15.8717 22.239 15.0797 20.809C14.2877 19.379 13.8917 17.707 13.8917 15.793C13.8917 13.879 14.2767 12.207 15.0467 10.777C15.8387 9.347 16.9387 8.247 18.3467 7.477C19.7547 6.707 21.3717 6.322 23.1977 6.322C24.9797 6.322 26.5637 6.696 27.9497 7.444C29.3357 8.192 30.4137 9.259 31.1837 10.645C31.9757 12.031 32.3717 13.648 32.3717 15.496ZM26.5967 14.011C26.5967 13.043 26.2667 12.273 25.6067 11.701C24.9467 11.129 24.1217 10.843 23.1317 10.843C22.1857 10.843 21.3827 11.118 20.7227 11.668C20.0847 12.218 19.6887 12.999 19.5347 14.011H26.5967ZM42.6417 19.72L46.6347 6.586H52.6407L46.1067 25H39.1437L32.6097 6.586H38.6487L42.6417 19.72ZM71.3839 15.496C71.3839 16.024 71.3509 16.574 71.2849 17.146H58.5139C58.6019 18.29 58.9649 19.17 59.6029 19.786C60.2629 20.38 61.0659 20.677 62.0119 20.677C63.4199 20.677 64.3989 20.083 64.9489 18.895H70.9549C70.6469 20.105 70.0859 21.194 69.2719 22.162C68.4799 23.13 67.4789 23.889 66.2689 24.439C65.0589 24.989 63.7059 25.264 62.2099 25.264C60.4059 25.264 58.7999 24.879 57.3919 24.109C55.9839 23.339 54.8839 22.239 54.0919 20.809C53.2999 19.379 52.9039 17.707 52.9039 15.793C52.9039 13.879 53.2889 12.207 54.0589 10.777C54.8509 9.347 55.9509 8.247 57.3589 7.477C58.7669 6.707 60.3839 6.322 62.2099 6.322C63.9919 6.322 65.5759 6.696 66.9619 7.444C68.3479 8.192 69.4259 9.259 70.1959 10.645C70.9879 12.031 71.3839 13.648 71.3839 15.496ZM65.6089 14.011C65.6089 13.043 65.2789 12.273 64.6189 11.701C63.9589 11.129 63.1339 10.843 62.1439 10.843C61.1979 10.843 60.3949 11.118 59.7349 11.668C59.0969 12.218 58.7009 12.999 58.5469 14.011H65.6089ZM79.0139 0.58V25H73.3709V0.58H79.0139Z" fill="#EE7B59"/>
<path d="M87.1594 13.384C87.1594 11.096 87.6544 9.061 88.6444 7.279C89.6344 5.475 91.0095 4.078 92.7695 3.088C94.5515 2.076 96.5645 1.57 98.8085 1.57C101.558 1.57 103.912 2.296 105.87 3.748C107.828 5.2 109.137 7.18 109.797 9.688H103.593C103.131 8.72 102.471 7.983 101.613 7.477C100.777 6.971 99.8205 6.718 98.7424 6.718C97.0045 6.718 95.5965 7.323 94.5185 8.533C93.4405 9.743 92.9015 11.36 92.9015 13.384C92.9015 15.408 93.4405 17.025 94.5185 18.235C95.5965 19.445 97.0045 20.05 98.7424 20.05C99.8205 20.05 100.777 19.797 101.613 19.291C102.471 18.785 103.131 18.048 103.593 17.08H109.797C109.137 19.588 107.828 21.568 105.87 23.02C103.912 24.45 101.558 25.165 98.8085 25.165C96.5645 25.165 94.5515 24.67 92.7695 23.68C91.0095 22.668 89.6344 21.271 88.6444 19.489C87.6544 17.707 87.1594 15.672 87.1594 13.384ZM120.645 25.264C118.841 25.264 117.213 24.879 115.761 24.109C114.331 23.339 113.198 22.239 112.362 20.809C111.548 19.379 111.141 17.707 111.141 15.793C111.141 13.901 111.559 12.24 112.395 10.81C113.231 9.358 114.375 8.247 115.827 7.477C117.279 6.707 118.907 6.322 120.711 6.322C122.515 6.322 124.143 6.707 125.595 7.477C127.047 8.247 128.191 9.358 129.027 10.81C129.863 12.24 130.281 13.901 130.281 15.793C130.281 17.685 129.852 19.357 128.994 20.809C128.158 22.239 127.003 23.339 125.529 24.109C124.077 24.879 122.449 25.264 120.645 25.264ZM120.645 20.38C121.723 20.38 122.636 19.984 123.384 19.192C124.154 18.4 124.539 17.267 124.539 15.793C124.539 14.319 124.165 13.186 123.417 12.394C122.691 11.602 121.789 11.206 120.711 11.206C119.611 11.206 118.698 11.602 117.972 12.394C117.246 13.164 116.883 14.297 116.883 15.793C116.883 17.267 117.235 18.4 117.939 19.192C118.665 19.984 119.567 20.38 120.645 20.38ZM155.781 6.388C158.069 6.388 159.884 7.081 161.226 8.467C162.59 9.853 163.272 11.778 163.272 14.242V25H157.662V15.001C157.662 13.813 157.343 12.9 156.705 12.262C156.089 11.602 155.231 11.272 154.131 11.272C153.031 11.272 152.162 11.602 151.524 12.262C150.908 12.9 150.6 13.813 150.6 15.001V25H144.99V15.001C144.99 13.813 144.671 12.9 144.033 12.262C143.417 11.602 142.559 11.272 141.459 11.272C140.359 11.272 139.49 11.602 138.852 12.262C138.236 12.9 137.928 13.813 137.928 15.001V25H132.285V6.586H137.928V8.896C138.5 8.126 139.248 7.521 140.172 7.081C141.096 6.619 142.141 6.388 143.307 6.388C144.693 6.388 145.925 6.685 147.003 7.279C148.103 7.873 148.961 8.72 149.577 9.82C150.215 8.808 151.084 7.983 152.184 7.345C153.284 6.707 154.483 6.388 155.781 6.388ZM171.871 9.193C172.421 8.335 173.18 7.642 174.148 7.114C175.116 6.586 176.249 6.322 177.547 6.322C179.065 6.322 180.44 6.707 181.672 7.477C182.904 8.247 183.872 9.347 184.576 10.777C185.302 12.207 185.665 13.868 185.665 15.76C185.665 17.652 185.302 19.324 184.576 20.776C183.872 22.206 182.904 23.317 181.672 24.109C180.44 24.879 179.065 25.264 177.547 25.264C176.271 25.264 175.138 25 174.148 24.472C173.18 23.944 172.421 23.262 171.871 22.426V33.778H166.228V6.586H171.871V9.193ZM179.923 15.76C179.923 14.352 179.527 13.252 178.735 12.46C177.965 11.646 177.008 11.239 175.864 11.239C174.742 11.239 173.785 11.646 172.993 12.46C172.223 13.274 171.838 14.385 171.838 15.793C171.838 17.201 172.223 18.312 172.993 19.126C173.785 19.94 174.742 20.347 175.864 20.347C176.986 20.347 177.943 19.94 178.735 19.126C179.527 18.29 179.923 17.168 179.923 15.76ZM193.279 0.58V25H187.636V0.58H193.279ZM213.736 15.496C213.736 16.024 213.703 16.574 213.637 17.146H200.866C200.954 18.29 201.317 19.17 201.955 19.786C202.615 20.38 203.418 20.677 204.364 20.677C205.772 20.677 206.751 20.083 207.301 18.895H213.307C212.999 20.105 212.438 21.194 211.624 22.162C210.832 23.13 209.831 23.889 208.621 24.439C207.411 24.989 206.058 25.264 204.562 25.264C202.758 25.264 201.152 24.879 199.744 24.109C198.336 23.339 197.236 22.239 196.444 20.809C195.652 19.379 195.256 17.707 195.256 15.793C195.256 13.879 195.641 12.207 196.411 10.777C197.203 9.347 198.303 8.247 199.711 7.477C201.119 6.707 202.736 6.322 204.562 6.322C206.344 6.322 207.928 6.696 209.314 7.444C210.7 8.192 211.778 9.259 212.548 10.645C213.34 12.031 213.736 13.648 213.736 15.496ZM207.961 14.011C207.961 13.043 207.631 12.273 206.971 11.701C206.311 11.129 205.486 10.843 204.496 10.843C203.55 10.843 202.747 11.118 202.087 11.668C201.449 12.218 201.053 12.999 200.899 14.011H207.961ZM225.986 20.215V25H223.115C221.069 25 219.474 24.505 218.33 23.515C217.186 22.503 216.614 20.864 216.614 18.598V11.272H214.37V6.586H216.614V2.098H222.257V6.586H225.953V11.272H222.257V18.664C222.257 19.214 222.389 19.61 222.653 19.852C222.917 20.094 223.357 20.215 223.973 20.215H225.986ZM245.498 15.496C245.498 16.024 245.465 16.574 245.399 17.146H232.628C232.716 18.29 233.079 19.17 233.717 19.786C234.377 20.38 235.18 20.677 236.126 20.677C237.534 20.677 238.513 20.083 239.063 18.895H245.069C244.761 20.105 244.2 21.194 243.386 22.162C242.594 23.13 241.593 23.889 240.383 24.439C239.173 24.989 237.82 25.264 236.324 25.264C234.52 25.264 232.914 24.879 231.506 24.109C230.098 23.339 228.998 22.239 228.206 20.809C227.414 19.379 227.018 17.707 227.018 15.793C227.018 13.879 227.403 12.207 228.173 10.777C228.965 9.347 230.065 8.247 231.473 7.477C232.881 6.707 234.498 6.322 236.324 6.322C238.106 6.322 239.69 6.696 241.076 7.444C242.462 8.192 243.54 9.259 244.31 10.645C245.102 12.031 245.498 13.648 245.498 15.496ZM239.723 14.011C239.723 13.043 239.393 12.273 238.733 11.701C238.073 11.129 237.248 10.843 236.258 10.843C235.312 10.843 234.509 11.118 233.849 11.668C233.211 12.218 232.815 12.999 232.661 14.011H239.723ZM246.363 15.76C246.363 13.868 246.715 12.207 247.419 10.777C248.145 9.347 249.124 8.247 250.356 7.477C251.588 6.707 252.963 6.322 254.481 6.322C255.691 6.322 256.791 6.575 257.781 7.081C258.793 7.587 259.585 8.269 260.157 9.127V0.58H265.8V25H260.157V22.36C259.629 23.24 258.87 23.944 257.88 24.472C256.912 25 255.779 25.264 254.481 25.264C252.963 25.264 251.588 24.879 250.356 24.109C249.124 23.317 248.145 22.206 247.419 20.776C246.715 19.324 246.363 17.652 246.363 15.76ZM260.157 15.793C260.157 14.385 259.761 13.274 258.969 12.46C258.199 11.646 257.253 11.239 256.131 11.239C255.009 11.239 254.052 11.646 253.26 12.46C252.49 13.252 252.105 14.352 252.105 15.76C252.105 17.168 252.49 18.29 253.26 19.126C254.052 19.94 255.009 20.347 256.131 20.347C257.253 20.347 258.199 19.94 258.969 19.126C259.761 18.312 260.157 17.201 260.157 15.793ZM276.317 1.009L275.657 16.816H270.872L270.212 1.009H276.317ZM273.347 25.264C272.357 25.264 271.543 24.978 270.905 24.406C270.289 23.812 269.981 23.086 269.981 22.228C269.981 21.348 270.289 20.611 270.905 20.017C271.543 19.423 272.357 19.126 273.347 19.126C274.315 19.126 275.107 19.423 275.723 20.017C276.361 20.611 276.68 21.348 276.68 22.228C276.68 23.086 276.361 23.812 275.723 24.406C275.107 24.978 274.315 25.264 273.347 25.264Z" fill="#30373D"/>
</svg>
