<svg width="35" height="37" viewBox="0 0 35 37" fill="none" xmlns="http://www.w3.org/2000/svg">
<path d="M21.2516 16.2512C22.2462 16.2512 23.2001 16.6463 23.9034 17.3497C24.6067 18.053 25.0018 19.0069 25.0018 20.0015V21.2516C25.0018 26.1795 20.3515 31.2523 12.5009 31.2523C4.65034 31.2523 0 26.1795 0 21.2516V20.0015C0 19.0069 0.395117 18.053 1.09843 17.3497C1.80174 16.6463 2.75564 16.2512 3.75028 16.2512H21.2516Z" fill="url(#paint0_linear_766_1596)"/>
<path d="M21.2516 16.2512C22.2462 16.2512 23.2001 16.6463 23.9034 17.3497C24.6067 18.053 25.0018 19.0069 25.0018 20.0015V21.2516C25.0018 26.1795 20.3515 31.2523 12.5009 31.2523C4.65034 31.2523 0 26.1795 0 21.2516V20.0015C0 19.0069 0.395117 18.053 1.09843 17.3497C1.80174 16.6463 2.75564 16.2512 3.75028 16.2512H21.2516Z" fill="url(#paint1_linear_766_1596)"/>
<path d="M21.2516 16.2512C22.2462 16.2512 23.2001 16.6463 23.9034 17.3497C24.6067 18.053 25.0018 19.0069 25.0018 20.0015V21.2516C25.0018 26.1795 20.3515 31.2523 12.5009 31.2523C4.65034 31.2523 0 26.1795 0 21.2516V20.0015C0 19.0069 0.395117 18.053 1.09843 17.3497C1.80174 16.6463 2.75564 16.2512 3.75028 16.2512H21.2516Z" fill="url(#paint2_radial_766_1596)" fill-opacity="0.75"/>
<path d="M12.501 0C14.3245 0 16.0733 0.724382 17.3627 2.01379C18.6521 3.3032 19.3765 5.05201 19.3765 6.87551C19.3765 8.69901 18.6521 10.4478 17.3627 11.7372C16.0733 13.0266 14.3245 13.751 12.501 13.751C10.6775 13.751 8.92869 13.0266 7.63928 11.7372C6.34987 10.4478 5.62549 8.69901 5.62549 6.87551C5.62549 5.05201 6.34987 3.3032 7.63928 2.01379C8.92869 0.724382 10.6775 0 12.501 0Z" fill="url(#paint3_linear_766_1596)"/>
<path d="M21.509 15.136L12.7684 32.6323C12.5773 33.0136 12.4869 33.4375 12.5059 33.8637C12.5249 34.2898 12.6526 34.704 12.8769 35.0669C13.1012 35.4297 13.4145 35.7291 13.7872 35.9367C14.1599 36.1442 14.5795 36.2529 15.006 36.2525H32.4973C32.9239 36.2529 33.3435 36.1442 33.7161 35.9367C34.0888 35.7291 34.4022 35.4297 34.6265 35.0669C34.8507 34.704 34.9784 34.2898 34.9974 33.8637C35.0164 33.4375 34.9261 33.0136 34.735 32.6323L25.9843 15.1335C25.777 14.7174 25.4577 14.3674 25.0625 14.1228C24.6672 13.8781 24.2115 13.7485 23.7467 13.7485C23.2818 13.7485 22.8262 13.8781 22.4309 14.1228C22.0356 14.3674 21.7164 14.7199 21.509 15.136Z" fill="url(#paint4_linear_766_1596)"/>
<path d="M24.997 19.9889V27.4944C24.997 27.826 24.8653 28.1439 24.6309 28.3784C24.3964 28.6128 24.0785 28.7445 23.7469 28.7445C23.4154 28.7445 23.0974 28.6128 22.863 28.3784C22.6285 28.1439 22.4968 27.826 22.4968 27.4944V19.9889C22.4968 19.6573 22.6285 19.3394 22.863 19.1049C23.0974 18.8705 23.4154 18.7388 23.7469 18.7388C24.0785 18.7388 24.3964 18.8705 24.6309 19.1049C24.8653 19.3394 24.997 19.6573 24.997 19.9889ZM23.7469 33.7499C23.4154 33.7499 23.0974 33.6182 22.863 33.3837C22.6285 33.1493 22.4968 32.8313 22.4968 32.4998C22.4968 32.1682 22.6285 31.8503 22.863 31.6158C23.0974 31.3814 23.4154 31.2497 23.7469 31.2497C24.0785 31.2497 24.3964 31.3814 24.6309 31.6158C24.8653 31.8503 24.997 32.1682 24.997 32.4998C24.997 32.8313 24.8653 33.1493 24.6309 33.3837C24.3964 33.6182 24.0785 33.7499 23.7469 33.7499Z" fill="url(#paint5_linear_766_1596)"/>
<defs>
<linearGradient id="paint0_linear_766_1596" x1="12.5009" y1="16.2512" x2="12.5009" y2="31.2523" gradientUnits="userSpaceOnUse">
<stop stop-color="#F54B02"/>
<stop offset="1" stop-color="#FE7E01"/>
</linearGradient>
<linearGradient id="paint1_linear_766_1596" x1="12.5009" y1="14.4661" x2="20.4115" y2="39.1004" gradientUnits="userSpaceOnUse">
<stop stop-color="#FF6901" stop-opacity="0"/>
<stop offset="1" stop-color="#FF6901"/>
</linearGradient>
<radialGradient id="paint2_radial_766_1596" cx="0" cy="0" r="1" gradientUnits="userSpaceOnUse" gradientTransform="translate(19.6453 33.394) rotate(-71.565) scale(22.5893 10.1228)">
<stop stop-color="#0A1852" stop-opacity="0.75"/>
<stop offset="1" stop-color="#0A1852" stop-opacity="0"/>
</radialGradient>
<linearGradient id="paint3_linear_766_1596" x1="8.89573" y1="1.82764" x2="15.9037" y2="13.0185" gradientUnits="userSpaceOnUse">
<stop offset="0.125" stop-color="#FF6901"/>
<stop offset="1" stop-color="#F25A0A"/>
</linearGradient>
<linearGradient id="paint4_linear_766_1596" x1="16.0161" y1="10.2356" x2="30.7847" y2="38.3627" gradientUnits="userSpaceOnUse">
<stop stop-color="#FFCD0F"/>
<stop offset="1" stop-color="#FE8401"/>
</linearGradient>
<linearGradient id="paint5_linear_766_1596" x1="20.4117" y1="18.7388" x2="28.4298" y2="32.9948" gradientUnits="userSpaceOnUse">
<stop stop-color="#4A4A4A"/>
<stop offset="1" stop-color="#212121"/>
</linearGradient>
</defs>
</svg>
