<svg width="14" height="14" viewBox="0 0 14 14" fill="none" xmlns="http://www.w3.org/2000/svg">
<mask id="mask0_1_1292" style="mask-type:luminance" maskUnits="userSpaceOnUse" x="0" y="0" width="14" height="14">
<path d="M7.00001 13C7.78808 13.001 8.56858 12.8462 9.29666 12.5446C10.0247 12.243 10.6861 11.8006 11.2426 11.2426C11.8006 10.6861 12.243 10.0247 12.5446 9.29666C12.8462 8.56858 13.001 7.78808 13 7.00001C13.001 6.21193 12.8462 5.43144 12.5446 4.70335C12.243 3.97527 11.8006 3.31396 11.2426 2.75741C10.6861 2.19945 10.0247 1.75697 9.29666 1.45538C8.56858 1.15379 7.78808 0.999033 7.00001 1C6.21193 0.999033 5.43144 1.15379 4.70335 1.45538C3.97527 1.75697 3.31396 2.19945 2.75741 2.75741C2.19945 3.31396 1.75697 3.97527 1.45538 4.70335C1.15379 5.43144 0.999033 6.21193 1 7.00001C0.999033 7.78808 1.15379 8.56858 1.45538 9.29666C1.75697 10.0247 2.19945 10.6861 2.75741 11.2426C3.31396 11.8006 3.97527 12.243 4.70335 12.5446C5.43144 12.8462 6.21193 13.001 7.00001 13Z" fill="white" stroke="white" stroke-width="2" stroke-linejoin="round"/>
<path fill-rule="evenodd" clip-rule="evenodd" d="M7 3.10001C7.19891 3.10001 7.38968 3.17902 7.53033 3.31968C7.67098 3.46033 7.75 3.65109 7.75 3.85001C7.75 4.04892 7.67098 4.23968 7.53033 4.38034C7.38968 4.52099 7.19891 4.60001 7 4.60001C6.80109 4.60001 6.61032 4.52099 6.46967 4.38034C6.32902 4.23968 6.25 4.04892 6.25 3.85001C6.25 3.65109 6.32902 3.46033 6.46967 3.31968C6.61032 3.17902 6.80109 3.10001 7 3.10001Z" fill="black"/>
<path d="M7.1501 9.99999V5.79999H6.5501M6.1001 9.99999H8.2001" stroke="black" stroke-width="2" stroke-linecap="round" stroke-linejoin="round"/>
</mask>
<g mask="url(#mask0_1_1292)">
<path d="M-0.199951 -0.200012H14.2001V14.2H-0.199951V-0.200012Z" fill="#FD7201"/>
</g>
</svg>
