<svg width="44" height="44" viewBox="0 0 44 44" fill="none" xmlns="http://www.w3.org/2000/svg">
<path d="M40.333 12.8335V3.66683H37.583V7.37933C35.383 5.57655 32.9538 4.20155 30.2955 3.25433C27.6372 2.30711 24.8719 1.8335 21.9997 1.8335C17.5386 1.8335 13.5969 2.85711 10.1747 4.90433C6.75245 6.95155 4.58301 9.59461 3.66634 12.8335H6.55384C7.71495 10.2668 9.67845 8.25016 12.4443 6.7835C15.2102 5.31683 18.3953 4.5835 21.9997 4.5835C24.6886 4.5835 27.2705 5.05711 29.7455 6.00433C32.2205 6.95155 34.4663 8.31127 36.483 10.0835H31.1663V12.8335H40.333Z" fill="#F1F1F1"/>
<path d="M21.2458 40.5003C20.5125 40.5003 19.8097 40.3628 19.1375 40.0878C18.4653 39.8128 17.8694 39.4156 17.35 38.8962L8 29.5003L9.375 28.0795C9.86389 27.5906 10.4371 27.2624 11.0947 27.095C11.7522 26.9276 12.4012 26.9349 13.0417 27.117L16.0667 27.9878V13.0003C16.0667 12.4809 16.2427 12.0458 16.5947 11.695C16.9467 11.3442 17.3818 11.1682 17.9 11.167C18.4182 11.1658 18.8539 11.3418 19.2072 11.695C19.5604 12.0482 19.7358 12.4833 19.7333 13.0003V32.8462L15.2875 31.6087L19.9625 36.2837C20.1153 36.4364 20.3066 36.5666 20.5363 36.6742C20.7661 36.7817 21.0026 36.8349 21.2458 36.8337H28.9C29.9083 36.8337 30.7718 36.4749 31.4905 35.7575C32.2092 35.0401 32.5679 34.1766 32.5667 33.167V25.8337C32.5667 25.3142 32.7427 24.8791 33.0947 24.5283C33.4467 24.1776 33.8818 24.0016 34.4 24.0003C34.9182 23.9991 35.3539 24.1751 35.7072 24.5283C36.0604 24.8816 36.2358 25.3167 36.2333 25.8337V33.167C36.2333 35.1837 35.5153 36.9101 34.0792 38.3462C32.6431 39.7823 30.9167 40.5003 28.9 40.5003H21.2458ZM21.5667 27.667V20.3337C21.5667 19.8142 21.7427 19.3791 22.0947 19.0283C22.4467 18.6776 22.8818 18.5016 23.4 18.5003C23.9182 18.4991 24.3539 18.6751 24.7072 19.0283C25.0604 19.3816 25.2358 19.8167 25.2333 20.3337V27.667H21.5667ZM27.0667 27.667V22.167C27.0667 21.6476 27.2427 21.2124 27.5947 20.8617C27.9467 20.5109 28.3818 20.3349 28.9 20.3337C29.4182 20.3324 29.8539 20.5084 30.2072 20.8617C30.5604 21.2149 30.7358 21.65 30.7333 22.167V27.667H27.0667Z" fill="#F1F1F1"/>
</svg>
