<svg width="44" height="44" viewBox="0 0 44 44" fill="none" xmlns="http://www.w3.org/2000/svg">
<path d="M21.6785 40.333C20.9452 40.333 20.2424 40.1955 19.5702 39.9205C18.898 39.6455 18.3021 39.2483 17.7827 38.7288L8.43268 29.333L9.80768 27.9122C10.2966 27.4233 10.8698 27.0951 11.5273 26.9277C12.1849 26.7602 12.8339 26.7676 13.4743 26.9497L16.4993 27.8205V12.833C16.4993 12.3136 16.6753 11.8785 17.0273 11.5277C17.3793 11.1769 17.8145 11.0009 18.3327 10.9997C18.8509 10.9985 19.2866 11.1745 19.6398 11.5277C19.9931 11.8809 20.1685 12.316 20.166 12.833V32.6788L15.7202 31.4413L20.3952 36.1163C20.548 36.2691 20.7392 36.3993 20.969 36.5068C21.1988 36.6144 21.4353 36.6676 21.6785 36.6663H29.3327C30.341 36.6663 31.2045 36.3076 31.9232 35.5902C32.6418 34.8727 33.0006 34.0092 32.9993 32.9997V25.6663C32.9993 25.1469 33.1754 24.7118 33.5273 24.361C33.8794 24.0102 34.3145 23.8342 34.8327 23.833C35.3509 23.8318 35.7866 24.0078 36.1398 24.361C36.4931 24.7142 36.6685 25.1493 36.666 25.6663V32.9997C36.666 35.0163 35.948 36.7427 34.5119 38.1788C33.0757 39.615 31.3493 40.333 29.3327 40.333H21.6785ZM21.9993 27.4997V20.1663C21.9993 19.6469 22.1754 19.2118 22.5273 18.861C22.8793 18.5102 23.3145 18.3342 23.8327 18.333C24.3509 18.3318 24.7866 18.5078 25.1399 18.861C25.4931 19.2142 25.6685 19.6493 25.666 20.1663V27.4997H21.9993ZM27.4993 27.4997V21.9997C27.4993 21.4802 27.6754 21.0451 28.0273 20.6943C28.3793 20.3436 28.8145 20.1676 29.3327 20.1663C29.8509 20.1651 30.2866 20.3411 30.6398 20.6943C30.9931 21.0476 31.1685 21.4827 31.166 21.9997V27.4997H27.4993ZM3.66602 12.833V3.66634H6.41602V7.37884C8.61602 5.57606 11.0452 4.20106 13.7035 3.25384C16.3618 2.30662 19.1271 1.83301 21.9993 1.83301C26.4605 1.83301 30.4021 2.85662 33.8244 4.90384C37.2466 6.95106 39.416 9.59412 40.3327 12.833H37.4452C36.2841 10.2663 34.3206 8.24967 31.5547 6.78301C28.7888 5.31634 25.6037 4.58301 21.9993 4.58301C19.3105 4.58301 16.7285 5.05662 14.2535 6.00384C11.7785 6.95106 9.53268 8.31079 7.51602 10.083H12.8327V12.833H3.66602Z" fill="#F1F1F1"/>
</svg>
