<svg width="18" height="18" viewBox="0 0 18 18" fill="none" xmlns="http://www.w3.org/2000/svg">
<path d="M8.69995 15.9502C12.704 15.9502 15.95 12.7043 15.95 8.70019C15.95 4.69613 12.704 1.4502 8.69995 1.4502C4.69589 1.4502 1.44995 4.69613 1.44995 8.70019C1.44995 12.7043 4.69589 15.9502 8.69995 15.9502Z" stroke="#FF6B3D" stroke-width="1.45" stroke-linecap="round" stroke-linejoin="round"/>
<path d="M8.7001 13.0501C11.1025 13.0501 13.0501 11.1025 13.0501 8.7001C13.0501 6.29766 11.1025 4.3501 8.7001 4.3501C6.29766 4.3501 4.3501 6.29766 4.3501 8.7001C4.3501 11.1025 6.29766 13.0501 8.7001 13.0501Z" stroke="#FF6B3D" stroke-width="1.45" stroke-linecap="round" stroke-linejoin="round"/>
<path d="M8.7 10.15C9.50081 10.15 10.15 9.50081 10.15 8.7C10.15 7.89919 9.50081 7.25 8.7 7.25C7.89919 7.25 7.25 7.89919 7.25 8.7C7.25 9.50081 7.89919 10.15 8.7 10.15Z" stroke="#FF6B3D" stroke-width="1.45" stroke-linecap="round" stroke-linejoin="round"/>
</svg>
