<svg width="48" height="48" viewBox="0 0 48 48" fill="none" xmlns="http://www.w3.org/2000/svg">
<rect x="1.18537" y="1.18537" width="45.0439" height="45.0439" rx="22.5219" fill="#FF6901"/>
<rect x="1.18537" y="1.18537" width="45.0439" height="45.0439" rx="22.5219" stroke="#FF6901" stroke-width="2.37073"/>
<path d="M22.7338 18.7505V33.6901C19.4606 32.7968 16.0829 32.3404 12.6905 32.3332C11.7859 32.3106 11.0653 31.5694 11.0684 30.6648V16.7028C11.0704 15.789 11.8044 15.0457 12.7183 15.0334C15.6304 14.8689 18.5459 15.314 21.2762 16.3399C22.1839 16.7974 22.7502 17.7338 22.7338 18.7505ZM34.4186 15.0334C31.5065 14.8689 28.5909 15.314 25.8606 16.3409C24.9529 16.7984 24.3865 17.7349 24.403 18.7515V33.6911C27.6761 32.7978 31.0538 32.3414 34.4462 32.3342C35.3508 32.3116 36.0714 31.5705 36.0683 30.6659V16.7028C36.0663 15.789 35.3324 15.0457 34.4186 15.0334Z" fill="white"/>
</svg>
