<svg width="290" height="34" viewBox="0 0 290 34" fill="none" xmlns="http://www.w3.org/2000/svg">
<path d="M17.6548 8.71204C17.6548 10.054 17.3468 11.286 16.7308 12.408C16.1148 13.508 15.1688 14.399 13.8928 15.081C12.6168 15.763 11.0328 16.104 9.14081 16.104H5.64281V24.42H-0.000188265V1.25404H9.14081C10.9888 1.25404 12.5508 1.57304 13.8268 2.21104C15.1028 2.84904 16.0598 3.72904 16.6978 4.85104C17.3358 5.97304 17.6548 7.26004 17.6548 8.71204ZM8.71181 11.616C9.78981 11.616 10.5928 11.363 11.1208 10.857C11.6488 10.351 11.9128 9.63604 11.9128 8.71204C11.9128 7.78804 11.6488 7.07304 11.1208 6.56704C10.5928 6.06104 9.78981 5.80804 8.71181 5.80804H5.64281V11.616H8.71181ZM18.4806 15.18C18.4806 13.288 18.8326 11.627 19.5366 10.197C20.2626 8.76704 21.2416 7.66704 22.4736 6.89704C23.7056 6.12704 25.0806 5.74204 26.5986 5.74204C27.8966 5.74204 29.0296 6.00604 29.9976 6.53404C30.9876 7.06204 31.7466 7.75504 32.2746 8.61304V6.00604H37.9176V24.42H32.2746V21.813C31.7246 22.671 30.9546 23.364 29.9646 23.892C28.9966 24.42 27.8636 24.684 26.5656 24.684C25.0696 24.684 23.7056 24.299 22.4736 23.529C21.2416 22.737 20.2626 21.626 19.5366 20.196C18.8326 18.744 18.4806 17.072 18.4806 15.18ZM32.2746 15.213C32.2746 13.805 31.8786 12.694 31.0866 11.88C30.3166 11.066 29.3706 10.659 28.2486 10.659C27.1266 10.659 26.1696 11.066 25.3776 11.88C24.6076 12.672 24.2226 13.772 24.2226 15.18C24.2226 16.588 24.6076 17.71 25.3776 18.546C26.1696 19.36 27.1266 19.767 28.2486 19.767C29.3706 19.767 30.3166 19.36 31.0866 18.546C31.8786 17.732 32.2746 16.621 32.2746 15.213ZM46.653 8.61304C47.203 7.75504 47.962 7.06204 48.93 6.53404C49.898 6.00604 51.031 5.74204 52.329 5.74204C53.847 5.74204 55.222 6.12704 56.454 6.89704C57.686 7.66704 58.654 8.76704 59.358 10.197C60.084 11.627 60.447 13.288 60.447 15.18C60.447 17.072 60.084 18.744 59.358 20.196C58.654 21.626 57.686 22.737 56.454 23.529C55.222 24.299 53.847 24.684 52.329 24.684C51.053 24.684 49.92 24.42 48.93 23.892C47.962 23.364 47.203 22.682 46.653 21.846V33.198H41.01V6.00604H46.653V8.61304ZM54.705 15.18C54.705 13.772 54.309 12.672 53.517 11.88C52.747 11.066 51.79 10.659 50.646 10.659C49.524 10.659 48.567 11.066 47.775 11.88C47.005 12.694 46.62 13.805 46.62 15.213C46.62 16.621 47.005 17.732 47.775 18.546C48.567 19.36 49.524 19.767 50.646 19.767C51.768 19.767 52.725 19.36 53.517 18.546C54.309 17.71 54.705 16.588 54.705 15.18ZM79.7755 14.916C79.7755 15.444 79.7425 15.994 79.6765 16.566H66.9055C66.9935 17.71 67.3565 18.59 67.9945 19.206C68.6545 19.8 69.4575 20.097 70.4035 20.097C71.8115 20.097 72.7905 19.503 73.3405 18.315H79.3465C79.0385 19.525 78.4775 20.614 77.6635 21.582C76.8715 22.55 75.8705 23.309 74.6605 23.859C73.4505 24.409 72.0975 24.684 70.6015 24.684C68.7975 24.684 67.1915 24.299 65.7835 23.529C64.3755 22.759 63.2755 21.659 62.4835 20.229C61.6915 18.799 61.2955 17.127 61.2955 15.213C61.2955 13.299 61.6805 11.627 62.4505 10.197C63.2425 8.76704 64.3425 7.66704 65.7505 6.89704C67.1585 6.12704 68.7755 5.74204 70.6015 5.74204C72.3835 5.74204 73.9675 6.11604 75.3535 6.86404C76.7395 7.61204 77.8175 8.67904 78.5875 10.065C79.3795 11.451 79.7755 13.068 79.7755 14.916ZM74.0005 13.431C74.0005 12.463 73.6705 11.693 73.0105 11.121C72.3505 10.549 71.5255 10.263 70.5355 10.263C69.5895 10.263 68.7865 10.538 68.1265 11.088C67.4885 11.638 67.0925 12.419 66.9385 13.431H74.0005ZM87.4055 9.07504C88.0655 8.06304 88.8905 7.27104 89.8805 6.69904C90.8705 6.10504 91.9705 5.80804 93.1805 5.80804V11.781H91.6295C90.2215 11.781 89.1655 12.089 88.4615 12.705C87.7575 13.299 87.4055 14.355 87.4055 15.873V24.42H81.7625V6.00604H87.4055V9.07504Z" fill="#2539A4"/>
<path d="M99.9339 12.804C99.9339 10.516 100.429 8.48104 101.419 6.69904C102.409 4.89504 103.784 3.49804 105.544 2.50804C107.326 1.49604 109.339 0.990043 111.583 0.990043C114.333 0.990043 116.687 1.71604 118.645 3.16804C120.603 4.62004 121.912 6.60004 122.572 9.10804H116.368C115.906 8.14004 115.246 7.40304 114.388 6.89704C113.552 6.39104 112.595 6.13804 111.517 6.13804C109.779 6.13804 108.371 6.74304 107.293 7.95304C106.215 9.16304 105.676 10.78 105.676 12.804C105.676 14.828 106.215 16.445 107.293 17.655C108.371 18.865 109.779 19.47 111.517 19.47C112.595 19.47 113.552 19.217 114.388 18.711C115.246 18.205 115.906 17.468 116.368 16.5H122.572C121.912 19.008 120.603 20.988 118.645 22.44C116.687 23.87 114.333 24.585 111.583 24.585C109.339 24.585 107.326 24.09 105.544 23.1C103.784 22.088 102.409 20.691 101.419 18.909C100.429 17.127 99.9339 15.092 99.9339 12.804ZM133.42 24.684C131.616 24.684 129.988 24.299 128.536 23.529C127.106 22.759 125.973 21.659 125.137 20.229C124.323 18.799 123.916 17.127 123.916 15.213C123.916 13.321 124.334 11.66 125.17 10.23C126.006 8.77804 127.15 7.66704 128.602 6.89704C130.054 6.12704 131.682 5.74204 133.486 5.74204C135.29 5.74204 136.918 6.12704 138.37 6.89704C139.822 7.66704 140.966 8.77804 141.802 10.23C142.638 11.66 143.056 13.321 143.056 15.213C143.056 17.105 142.627 18.777 141.769 20.229C140.933 21.659 139.778 22.759 138.304 23.529C136.852 24.299 135.224 24.684 133.42 24.684ZM133.42 19.8C134.498 19.8 135.411 19.404 136.159 18.612C136.929 17.82 137.314 16.687 137.314 15.213C137.314 13.739 136.94 12.606 136.192 11.814C135.466 11.022 134.564 10.626 133.486 10.626C132.386 10.626 131.473 11.022 130.747 11.814C130.021 12.584 129.658 13.717 129.658 15.213C129.658 16.687 130.01 17.82 130.714 18.612C131.44 19.404 132.342 19.8 133.42 19.8ZM168.555 5.80804C170.843 5.80804 172.658 6.50104 174 7.88704C175.364 9.27304 176.046 11.198 176.046 13.662V24.42H170.436V14.421C170.436 13.233 170.117 12.32 169.479 11.682C168.863 11.022 168.005 10.692 166.905 10.692C165.805 10.692 164.936 11.022 164.298 11.682C163.682 12.32 163.374 13.233 163.374 14.421V24.42H157.764V14.421C157.764 13.233 157.445 12.32 156.807 11.682C156.191 11.022 155.333 10.692 154.233 10.692C153.133 10.692 152.264 11.022 151.626 11.682C151.01 12.32 150.702 13.233 150.702 14.421V24.42H145.059V6.00604H150.702V8.31604C151.274 7.54604 152.022 6.94104 152.946 6.50104C153.87 6.03904 154.915 5.80804 156.081 5.80804C157.467 5.80804 158.699 6.10504 159.777 6.69904C160.877 7.29304 161.735 8.14004 162.351 9.24004C162.989 8.22804 163.858 7.40304 164.958 6.76504C166.058 6.12704 167.257 5.80804 168.555 5.80804ZM184.646 8.61304C185.196 7.75504 185.955 7.06204 186.923 6.53404C187.891 6.00604 189.024 5.74204 190.322 5.74204C191.84 5.74204 193.215 6.12704 194.447 6.89704C195.679 7.66704 196.647 8.76704 197.351 10.197C198.077 11.627 198.44 13.288 198.44 15.18C198.44 17.072 198.077 18.744 197.351 20.196C196.647 21.626 195.679 22.737 194.447 23.529C193.215 24.299 191.84 24.684 190.322 24.684C189.046 24.684 187.913 24.42 186.923 23.892C185.955 23.364 185.196 22.682 184.646 21.846V33.198H179.003V6.00604H184.646V8.61304ZM192.698 15.18C192.698 13.772 192.302 12.672 191.51 11.88C190.74 11.066 189.783 10.659 188.639 10.659C187.517 10.659 186.56 11.066 185.768 11.88C184.998 12.694 184.613 13.805 184.613 15.213C184.613 16.621 184.998 17.732 185.768 18.546C186.56 19.36 187.517 19.767 188.639 19.767C189.761 19.767 190.718 19.36 191.51 18.546C192.302 17.71 192.698 16.588 192.698 15.18ZM206.053 4.36306e-05V24.42H200.41V4.36306e-05H206.053ZM226.511 14.916C226.511 15.444 226.478 15.994 226.412 16.566H213.641C213.729 17.71 214.092 18.59 214.73 19.206C215.39 19.8 216.193 20.097 217.139 20.097C218.547 20.097 219.526 19.503 220.076 18.315H226.082C225.774 19.525 225.213 20.614 224.399 21.582C223.607 22.55 222.606 23.309 221.396 23.859C220.186 24.409 218.833 24.684 217.337 24.684C215.533 24.684 213.927 24.299 212.519 23.529C211.111 22.759 210.011 21.659 209.219 20.229C208.427 18.799 208.031 17.127 208.031 15.213C208.031 13.299 208.416 11.627 209.186 10.197C209.978 8.76704 211.078 7.66704 212.486 6.89704C213.894 6.12704 215.511 5.74204 217.337 5.74204C219.119 5.74204 220.703 6.11604 222.089 6.86404C223.475 7.61204 224.553 8.67904 225.323 10.065C226.115 11.451 226.511 13.068 226.511 14.916ZM220.736 13.431C220.736 12.463 220.406 11.693 219.746 11.121C219.086 10.549 218.261 10.263 217.271 10.263C216.325 10.263 215.522 10.538 214.862 11.088C214.224 11.638 213.828 12.419 213.674 13.431H220.736ZM238.761 19.635V24.42H235.89C233.844 24.42 232.249 23.925 231.105 22.935C229.961 21.923 229.389 20.284 229.389 18.018V10.692H227.145V6.00604H229.389V1.51804H235.032V6.00604H238.728V10.692H235.032V18.084C235.032 18.634 235.164 19.03 235.428 19.272C235.692 19.514 236.132 19.635 236.748 19.635H238.761ZM258.272 14.916C258.272 15.444 258.239 15.994 258.173 16.566H245.402C245.49 17.71 245.853 18.59 246.491 19.206C247.151 19.8 247.954 20.097 248.9 20.097C250.308 20.097 251.287 19.503 251.837 18.315H257.843C257.535 19.525 256.974 20.614 256.16 21.582C255.368 22.55 254.367 23.309 253.157 23.859C251.947 24.409 250.594 24.684 249.098 24.684C247.294 24.684 245.688 24.299 244.28 23.529C242.872 22.759 241.772 21.659 240.98 20.229C240.188 18.799 239.792 17.127 239.792 15.213C239.792 13.299 240.177 11.627 240.947 10.197C241.739 8.76704 242.839 7.66704 244.247 6.89704C245.655 6.12704 247.272 5.74204 249.098 5.74204C250.88 5.74204 252.464 6.11604 253.85 6.86404C255.236 7.61204 256.314 8.67904 257.084 10.065C257.876 11.451 258.272 13.068 258.272 14.916ZM252.497 13.431C252.497 12.463 252.167 11.693 251.507 11.121C250.847 10.549 250.022 10.263 249.032 10.263C248.086 10.263 247.283 10.538 246.623 11.088C245.985 11.638 245.589 12.419 245.435 13.431H252.497ZM259.137 15.18C259.137 13.288 259.489 11.627 260.193 10.197C260.919 8.76704 261.898 7.66704 263.13 6.89704C264.362 6.12704 265.737 5.74204 267.255 5.74204C268.465 5.74204 269.565 5.99504 270.555 6.50104C271.567 7.00704 272.359 7.68904 272.931 8.54704V4.36306e-05H278.574V24.42H272.931V21.78C272.403 22.66 271.644 23.364 270.654 23.892C269.686 24.42 268.553 24.684 267.255 24.684C265.737 24.684 264.362 24.299 263.13 23.529C261.898 22.737 260.919 21.626 260.193 20.196C259.489 18.744 259.137 17.072 259.137 15.18ZM272.931 15.213C272.931 13.805 272.535 12.694 271.743 11.88C270.973 11.066 270.027 10.659 268.905 10.659C267.783 10.659 266.826 11.066 266.034 11.88C265.264 12.672 264.879 13.772 264.879 15.18C264.879 16.588 265.264 17.71 266.034 18.546C266.826 19.36 267.783 19.767 268.905 19.767C270.027 19.767 270.973 19.36 271.743 18.546C272.535 17.732 272.931 16.621 272.931 15.213ZM289.091 0.429042L288.431 16.236H283.646L282.986 0.429042H289.091ZM286.121 24.684C285.131 24.684 284.317 24.398 283.679 23.826C283.063 23.232 282.755 22.506 282.755 21.648C282.755 20.768 283.063 20.031 283.679 19.437C284.317 18.843 285.131 18.546 286.121 18.546C287.089 18.546 287.881 18.843 288.497 19.437C289.135 20.031 289.454 20.768 289.454 21.648C289.454 22.506 289.135 23.232 288.497 23.826C287.881 24.398 287.089 24.684 286.121 24.684Z" fill="#30373D"/>
</svg>
