<svg width="289" height="36" viewBox="0 0 289 36" fill="none" xmlns="http://www.w3.org/2000/svg">
<path d="M11.8138 26.4331L6.99581 17.6881H5.64281V26.4331H-0.000188265V3.2671H9.47081C11.2968 3.2671 12.8478 3.5861 14.1238 4.2241C15.4218 4.8621 16.3898 5.7421 17.0278 6.8641C17.6658 7.9641 17.9848 9.1961 17.9848 10.5601C17.9848 12.1001 17.5448 13.4751 16.6648 14.6851C15.8068 15.8951 14.5308 16.7531 12.8368 17.2591L18.1828 26.4331H11.8138ZM5.64281 13.6951H9.14081C10.1748 13.6951 10.9448 13.4421 11.4508 12.9361C11.9788 12.4301 12.2428 11.7151 12.2428 10.7911C12.2428 9.91111 11.9788 9.21811 11.4508 8.71211C10.9448 8.20611 10.1748 7.95311 9.14081 7.95311H5.64281V13.6951ZM37.8952 16.9291C37.8952 17.4571 37.8622 18.0071 37.7962 18.5791H25.0252C25.1132 19.7231 25.4762 20.6031 26.1142 21.2191C26.7742 21.8131 27.5772 22.1101 28.5232 22.1101C29.9312 22.1101 30.9102 21.5161 31.4602 20.3281H37.4662C37.1582 21.5381 36.5972 22.6271 35.7832 23.5951C34.9912 24.5631 33.9902 25.3221 32.7802 25.8721C31.5702 26.4221 30.2172 26.6971 28.7212 26.6971C26.9172 26.6971 25.3112 26.3121 23.9032 25.5421C22.4952 24.7721 21.3952 23.6721 20.6032 22.2421C19.8112 20.8121 19.4152 19.1401 19.4152 17.2261C19.4152 15.3121 19.8002 13.6401 20.5702 12.2101C21.3622 10.7801 22.4622 9.6801 23.8702 8.9101C25.2782 8.1401 26.8952 7.7551 28.7212 7.7551C30.5032 7.7551 32.0872 8.1291 33.4732 8.87711C34.8592 9.6251 35.9372 10.6921 36.7072 12.0781C37.4992 13.4641 37.8952 15.0811 37.8952 16.9291ZM32.1202 15.4441C32.1202 14.4761 31.7902 13.7061 31.1302 13.1341C30.4702 12.5621 29.6452 12.2761 28.6552 12.2761C27.7092 12.2761 26.9062 12.5511 26.2462 13.1011C25.6082 13.6511 25.2122 14.4321 25.0582 15.4441H32.1202ZM48.1651 21.1531L52.1581 8.0191H58.1641L51.6301 26.4331H44.6671L38.1331 8.0191H44.1721L48.1651 21.1531ZM62.3873 6.1051C61.3973 6.1051 60.5833 5.8191 59.9453 5.2471C59.3293 4.6531 59.0213 3.9271 59.0213 3.06911C59.0213 2.1891 59.3293 1.4631 59.9453 0.891104C60.5833 0.297104 61.3973 0.000103533 62.3873 0.000103533C63.3553 0.000103533 64.1473 0.297104 64.7633 0.891104C65.4013 1.4631 65.7203 2.1891 65.7203 3.06911C65.7203 3.9271 65.4013 4.6531 64.7633 5.2471C64.1473 5.8191 63.3553 6.1051 62.3873 6.1051ZM65.1923 8.0191V26.4331H59.5493V8.0191H65.1923ZM85.6498 16.9291C85.6498 17.4571 85.6168 18.0071 85.5508 18.5791H72.7798C72.8678 19.7231 73.2308 20.6031 73.8688 21.2191C74.5288 21.8131 75.3318 22.1101 76.2778 22.1101C77.6858 22.1101 78.6648 21.5161 79.2148 20.3281H85.2208C84.9128 21.5381 84.3518 22.6271 83.5378 23.5951C82.7458 24.5631 81.7448 25.3221 80.5348 25.8721C79.3248 26.4221 77.9718 26.6971 76.4758 26.6971C74.6718 26.6971 73.0658 26.3121 71.6578 25.5421C70.2498 24.7721 69.1498 23.6721 68.3578 22.2421C67.5658 20.8121 67.1698 19.1401 67.1698 17.2261C67.1698 15.3121 67.5548 13.6401 68.3248 12.2101C69.1168 10.7801 70.2168 9.6801 71.6248 8.9101C73.0328 8.1401 74.6498 7.7551 76.4758 7.7551C78.2578 7.7551 79.8418 8.1291 81.2278 8.87711C82.6138 9.6251 83.6918 10.6921 84.4618 12.0781C85.2538 13.4641 85.6498 15.0811 85.6498 16.9291ZM79.8748 15.4441C79.8748 14.4761 79.5448 13.7061 78.8848 13.1341C78.2248 12.5621 77.3998 12.2761 76.4098 12.2761C75.4638 12.2761 74.6608 12.5511 74.0008 13.1011C73.3628 13.6511 72.9668 14.4321 72.8128 15.4441H79.8748ZM114.07 8.0191L109.087 26.4331H102.85L99.9457 14.4871L96.9427 26.4331H90.7387L85.7227 8.0191H91.3657L93.9727 21.1861L97.0747 8.0191H103.048L106.183 21.1201L108.757 8.0191H114.07Z" fill="#2539A4"/>
<path d="M120.278 14.8171C120.278 12.5291 120.773 10.4941 121.763 8.71211C122.753 6.90811 124.128 5.5111 125.888 4.5211C127.67 3.5091 129.683 3.0031 131.927 3.0031C134.677 3.0031 137.031 3.7291 138.989 5.1811C140.947 6.6331 142.256 8.61311 142.916 11.1211H136.712C136.25 10.1531 135.59 9.4161 134.732 8.9101C133.896 8.4041 132.939 8.1511 131.861 8.1511C130.123 8.1511 128.715 8.7561 127.637 9.96611C126.559 11.1761 126.02 12.7931 126.02 14.8171C126.02 16.8411 126.559 18.4581 127.637 19.6681C128.715 20.8781 130.123 21.4831 131.861 21.4831C132.939 21.4831 133.896 21.2301 134.732 20.7241C135.59 20.2181 136.25 19.4811 136.712 18.5131H142.916C142.256 21.0211 140.947 23.0011 138.989 24.4531C137.031 25.8831 134.677 26.5981 131.927 26.5981C129.683 26.5981 127.67 26.1031 125.888 25.1131C124.128 24.1011 122.753 22.7041 121.763 20.9221C120.773 19.1401 120.278 17.1051 120.278 14.8171ZM153.764 26.6971C151.96 26.6971 150.332 26.3121 148.88 25.5421C147.45 24.7721 146.317 23.6721 145.481 22.2421C144.667 20.8121 144.26 19.1401 144.26 17.2261C144.26 15.3341 144.678 13.6731 145.514 12.2431C146.35 10.7911 147.494 9.6801 148.946 8.9101C150.398 8.1401 152.026 7.7551 153.83 7.7551C155.634 7.7551 157.262 8.1401 158.714 8.9101C160.166 9.6801 161.31 10.7911 162.146 12.2431C162.982 13.6731 163.4 15.3341 163.4 17.2261C163.4 19.1181 162.971 20.7901 162.113 22.2421C161.277 23.6721 160.122 24.7721 158.648 25.5421C157.196 26.3121 155.568 26.6971 153.764 26.6971ZM153.764 21.8131C154.842 21.8131 155.755 21.4171 156.503 20.6251C157.273 19.8331 157.658 18.7001 157.658 17.2261C157.658 15.7521 157.284 14.6191 156.536 13.8271C155.81 13.0351 154.908 12.6391 153.83 12.6391C152.73 12.6391 151.817 13.0351 151.091 13.8271C150.365 14.5971 150.002 15.7301 150.002 17.2261C150.002 18.7001 150.354 19.8331 151.058 20.6251C151.784 21.4171 152.686 21.8131 153.764 21.8131ZM188.899 7.82111C191.187 7.82111 193.002 8.5141 194.344 9.9001C195.708 11.2861 196.39 13.2111 196.39 15.6751V26.4331H190.78V16.4341C190.78 15.2461 190.461 14.3331 189.823 13.6951C189.207 13.0351 188.349 12.7051 187.249 12.7051C186.149 12.7051 185.28 13.0351 184.642 13.6951C184.026 14.3331 183.718 15.2461 183.718 16.4341V26.4331H178.108V16.4341C178.108 15.2461 177.789 14.3331 177.151 13.6951C176.535 13.0351 175.677 12.7051 174.577 12.7051C173.477 12.7051 172.608 13.0351 171.97 13.6951C171.354 14.3331 171.046 15.2461 171.046 16.4341V26.4331H165.403V8.0191H171.046V10.3291C171.618 9.55911 172.366 8.9541 173.29 8.5141C174.214 8.0521 175.259 7.82111 176.425 7.82111C177.811 7.82111 179.043 8.11811 180.121 8.71211C181.221 9.3061 182.079 10.1531 182.695 11.2531C183.333 10.2411 184.202 9.4161 185.302 8.7781C186.402 8.1401 187.601 7.82111 188.899 7.82111ZM204.99 10.6261C205.54 9.7681 206.299 9.0751 207.267 8.5471C208.235 8.0191 209.368 7.7551 210.666 7.7551C212.184 7.7551 213.559 8.1401 214.791 8.9101C216.023 9.6801 216.991 10.7801 217.695 12.2101C218.421 13.6401 218.784 15.3011 218.784 17.1931C218.784 19.0851 218.421 20.7571 217.695 22.2091C216.991 23.6391 216.023 24.7501 214.791 25.5421C213.559 26.3121 212.184 26.6971 210.666 26.6971C209.39 26.6971 208.257 26.4331 207.267 25.9051C206.299 25.3771 205.54 24.6951 204.99 23.8591V35.2111H199.347V8.0191H204.99V10.6261ZM213.042 17.1931C213.042 15.7851 212.646 14.6851 211.854 13.8931C211.084 13.0791 210.127 12.6721 208.983 12.6721C207.861 12.6721 206.904 13.0791 206.112 13.8931C205.342 14.7071 204.957 15.8181 204.957 17.2261C204.957 18.6341 205.342 19.7451 206.112 20.5591C206.904 21.3731 207.861 21.7801 208.983 21.7801C210.105 21.7801 211.062 21.3731 211.854 20.5591C212.646 19.7231 213.042 18.6011 213.042 17.1931ZM226.397 2.01311V26.4331H220.754V2.01311H226.397ZM246.855 16.9291C246.855 17.4571 246.822 18.0071 246.756 18.5791H233.985C234.073 19.7231 234.436 20.6031 235.074 21.2191C235.734 21.8131 236.537 22.1101 237.483 22.1101C238.891 22.1101 239.87 21.5161 240.42 20.3281H246.426C246.118 21.5381 245.557 22.6271 244.743 23.5951C243.951 24.5631 242.95 25.3221 241.74 25.8721C240.53 26.4221 239.177 26.6971 237.681 26.6971C235.877 26.6971 234.271 26.3121 232.863 25.5421C231.455 24.7721 230.355 23.6721 229.563 22.2421C228.771 20.8121 228.375 19.1401 228.375 17.2261C228.375 15.3121 228.76 13.6401 229.53 12.2101C230.322 10.7801 231.422 9.6801 232.83 8.9101C234.238 8.1401 235.855 7.7551 237.681 7.7551C239.463 7.7551 241.047 8.1291 242.433 8.87711C243.819 9.6251 244.897 10.6921 245.667 12.0781C246.459 13.4641 246.855 15.0811 246.855 16.9291ZM241.08 15.4441C241.08 14.4761 240.75 13.7061 240.09 13.1341C239.43 12.5621 238.605 12.2761 237.615 12.2761C236.669 12.2761 235.866 12.5511 235.206 13.1011C234.568 13.6511 234.172 14.4321 234.018 15.4441H241.08ZM259.105 21.6481V26.4331H256.234C254.188 26.4331 252.593 25.9381 251.449 24.9481C250.305 23.9361 249.733 22.2971 249.733 20.0311V12.7051H247.489V8.0191H249.733V3.53111H255.376V8.0191H259.072V12.7051H255.376V20.0971C255.376 20.6471 255.508 21.0431 255.772 21.2851C256.036 21.5271 256.476 21.6481 257.092 21.6481H259.105ZM278.616 16.9291C278.616 17.4571 278.583 18.0071 278.517 18.5791H265.746C265.834 19.7231 266.197 20.6031 266.835 21.2191C267.495 21.8131 268.298 22.1101 269.244 22.1101C270.652 22.1101 271.631 21.5161 272.181 20.3281H278.187C277.879 21.5381 277.318 22.6271 276.504 23.5951C275.712 24.5631 274.711 25.3221 273.501 25.8721C272.291 26.4221 270.938 26.6971 269.442 26.6971C267.638 26.6971 266.032 26.3121 264.624 25.5421C263.216 24.7721 262.116 23.6721 261.324 22.2421C260.532 20.8121 260.136 19.1401 260.136 17.2261C260.136 15.3121 260.521 13.6401 261.291 12.2101C262.083 10.7801 263.183 9.6801 264.591 8.9101C265.999 8.1401 267.616 7.7551 269.442 7.7551C271.224 7.7551 272.808 8.1291 274.194 8.87711C275.58 9.6251 276.658 10.6921 277.428 12.0781C278.22 13.4641 278.616 15.0811 278.616 16.9291ZM272.841 15.4441C272.841 14.4761 272.511 13.7061 271.851 13.1341C271.191 12.5621 270.366 12.2761 269.376 12.2761C268.43 12.2761 267.627 12.5511 266.967 13.1011C266.329 13.6511 265.933 14.4321 265.779 15.4441H272.841ZM288.028 2.4421L287.368 18.2491H282.583L281.923 2.4421H288.028ZM285.058 26.6971C284.068 26.6971 283.254 26.4111 282.616 25.8391C282 25.2451 281.692 24.5191 281.692 23.6611C281.692 22.7811 282 22.0441 282.616 21.4501C283.254 20.8561 284.068 20.5591 285.058 20.5591C286.026 20.5591 286.818 20.8561 287.434 21.4501C288.072 22.0441 288.391 22.7811 288.391 23.6611C288.391 24.5191 288.072 25.2451 287.434 25.8391C286.818 26.4111 286.026 26.6971 285.058 26.6971Z" fill="#30373D"/>
</svg>
