<svg width="150" height="31" viewBox="0 0 150 31" fill="none" xmlns="http://www.w3.org/2000/svg">
<path d="M10.16 26.252C8.408 26.252 6.824 25.952 5.408 25.352C4.016 24.752 2.912 23.888 2.096 22.76C1.28 21.632 0.86 20.3 0.836 18.764H6.236C6.308 19.796 6.668 20.612 7.316 21.212C7.988 21.812 8.9 22.112 10.052 22.112C11.228 22.112 12.152 21.836 12.824 21.284C13.496 20.708 13.832 19.964 13.832 19.052C13.832 18.308 13.604 17.696 13.148 17.216C12.692 16.736 12.116 16.364 11.42 16.1C10.748 15.812 9.812 15.5 8.612 15.164C6.98 14.684 5.648 14.216 4.616 13.76C3.608 13.28 2.732 12.572 1.988 11.636C1.268 10.676 0.908 9.404 0.908 7.82C0.908 6.332 1.28 5.036 2.024 3.932C2.768 2.828 3.812 1.988 5.156 1.412C6.5 0.812 8.036 0.512 9.764 0.512C12.356 0.512 14.456 1.148 16.064 2.42C17.696 3.668 18.596 5.42 18.764 7.676H13.22C13.172 6.812 12.8 6.104 12.104 5.552C11.432 4.976 10.532 4.688 9.404 4.688C8.42 4.688 7.628 4.94 7.028 5.444C6.452 5.948 6.164 6.68 6.164 7.64C6.164 8.312 6.38 8.876 6.812 9.332C7.268 9.764 7.82 10.124 8.468 10.412C9.14 10.676 10.076 10.988 11.276 11.348C12.908 11.828 14.24 12.308 15.272 12.788C16.304 13.268 17.192 13.988 17.936 14.948C18.68 15.908 19.052 17.168 19.052 18.728C19.052 20.072 18.704 21.32 18.008 22.472C17.312 23.624 16.292 24.548 14.948 25.244C13.604 25.916 12.008 26.252 10.16 26.252ZM48.1895 5.768C50.6375 5.768 52.6055 6.524 54.0935 8.036C55.6055 9.524 56.3615 11.612 56.3615 14.3V26H51.3215V14.984C51.3215 13.424 50.9255 12.236 50.1335 11.42C49.3415 10.58 48.2615 10.16 46.8935 10.16C45.5255 10.16 44.4335 10.58 43.6175 11.42C42.8255 12.236 42.4295 13.424 42.4295 14.984V26H37.3895V14.984C37.3895 13.424 36.9935 12.236 36.2015 11.42C35.4095 10.58 34.3295 10.16 32.9615 10.16C31.5695 10.16 30.4655 10.58 29.6495 11.42C28.8575 12.236 28.4615 13.424 28.4615 14.984V26H23.4215V6.056H28.4615V8.468C29.1095 7.628 29.9375 6.968 30.9455 6.488C31.9775 6.008 33.1055 5.768 34.3295 5.768C35.8895 5.768 37.2815 6.104 38.5055 6.776C39.7295 7.424 40.6775 8.36 41.3495 9.584C41.9975 8.432 42.9335 7.508 44.1575 6.812C45.4055 6.116 46.7495 5.768 48.1895 5.768ZM59.8482 15.956C59.8482 13.94 60.2442 12.152 61.0362 10.592C61.8522 9.032 62.9442 7.832 64.3122 6.992C65.7042 6.152 67.2522 5.732 68.9562 5.732C70.4442 5.732 71.7402 6.032 72.8442 6.632C73.9722 7.232 74.8722 7.988 75.5442 8.9V6.056H80.6202V26H75.5442V23.084C74.8962 24.02 73.9962 24.8 72.8442 25.424C71.7162 26.024 70.4082 26.324 68.9202 26.324C67.2402 26.324 65.7042 25.892 64.3122 25.028C62.9442 24.164 61.8522 22.952 61.0362 21.392C60.2442 19.808 59.8482 17.996 59.8482 15.956ZM75.5442 16.028C75.5442 14.804 75.3042 13.76 74.8242 12.896C74.3442 12.008 73.6962 11.336 72.8802 10.88C72.0642 10.4 71.1882 10.16 70.2522 10.16C69.3162 10.16 68.4522 10.388 67.6602 10.844C66.8682 11.3 66.2202 11.972 65.7162 12.86C65.2362 13.724 64.9962 14.756 64.9962 15.956C64.9962 17.156 65.2362 18.212 65.7162 19.124C66.2202 20.012 66.8682 20.696 67.6602 21.176C68.4762 21.656 69.3402 21.896 70.2522 21.896C71.1882 21.896 72.0642 21.668 72.8802 21.212C73.6962 20.732 74.3442 20.06 74.8242 19.196C75.3042 18.308 75.5442 17.252 75.5442 16.028ZM90.5826 9.152C91.2306 8.096 92.0706 7.268 93.1026 6.668C94.1586 6.068 95.3586 5.768 96.7026 5.768V11.06H95.3706C93.7866 11.06 92.5866 11.432 91.7706 12.176C90.9786 12.92 90.5826 14.216 90.5826 16.064V26H85.5426V6.056H90.5826V9.152ZM105.965 10.196V19.844C105.965 20.516 106.121 21.008 106.433 21.32C106.769 21.608 107.321 21.752 108.089 21.752H110.429V26H107.261C103.013 26 100.889 23.936 100.889 19.808V10.196H98.5133V6.056H100.889V1.124H105.965V6.056H110.429V10.196H105.965ZM119.094 0.872V26H114.054V0.872H119.094ZM142.794 30.428L138.978 25.856C137.922 26.12 136.842 26.252 135.738 26.252C133.386 26.252 131.226 25.7 129.258 24.596C127.29 23.492 125.73 21.968 124.578 20.024C123.426 18.056 122.85 15.836 122.85 13.364C122.85 10.916 123.426 8.72 124.578 6.776C125.73 4.808 127.29 3.272 129.258 2.168C131.226 1.064 133.386 0.512 135.738 0.512C138.114 0.512 140.274 1.064 142.218 2.168C144.186 3.272 145.734 4.808 146.862 6.776C148.014 8.72 148.59 10.916 148.59 13.364C148.59 15.596 148.11 17.636 147.15 19.484C146.214 21.308 144.93 22.796 143.298 23.948L149.058 30.428H142.794ZM128.034 13.364C128.034 15.044 128.358 16.52 129.006 17.792C129.654 19.064 130.554 20.048 131.706 20.744C132.882 21.416 134.226 21.752 135.738 21.752C137.25 21.752 138.582 21.416 139.734 20.744C140.886 20.048 141.786 19.064 142.434 17.792C143.082 16.52 143.406 15.044 143.406 13.364C143.406 11.684 143.082 10.22 142.434 8.972C141.786 7.7 140.886 6.728 139.734 6.056C138.582 5.384 137.25 5.048 135.738 5.048C134.226 5.048 132.882 5.384 131.706 6.056C130.554 6.728 129.654 7.7 129.006 8.972C128.358 10.22 128.034 11.684 128.034 13.364Z" fill="#FF6901"/>
</svg>
