<svg width="14" height="14" viewBox="0 0 14 14" fill="none" xmlns="http://www.w3.org/2000/svg">
<g clip-path="url(#clip0_1_1101)">
<path fill-rule="evenodd" clip-rule="evenodd" d="M6.987 1.50001C6.56896 1.49246 6.15354 1.56742 5.76451 1.72061C5.37548 1.87379 5.02048 2.10218 4.71981 2.39272C4.41915 2.68326 4.17874 3.03024 4.01232 3.4138C3.84591 3.79735 3.75677 4.20996 3.75 4.62801V9.00001C3.75 9.26523 3.64464 9.51958 3.45711 9.70712C3.26957 9.89466 3.01522 10 2.75 10H1.5C1.10218 10 0.720644 9.84198 0.43934 9.56067C0.158035 9.27937 0 8.89784 0 8.50001L0 6.50001C0 6.10219 0.158035 5.72066 0.43934 5.43935C0.720644 5.15805 1.10218 5.00001 1.5 5.00001H2.25V4.61001C2.25912 3.99541 2.38923 3.38862 2.63289 2.8243C2.87655 2.25998 3.22899 1.74919 3.67009 1.3211C4.11118 0.893008 4.63228 0.556002 5.20363 0.329327C5.77499 0.102653 6.3854 -0.00924905 7 1.25149e-05C7.6146 -0.00924905 8.22501 0.102653 8.79637 0.329327C9.36772 0.556002 9.88882 0.893008 10.3299 1.3211C10.771 1.74919 11.1234 2.25998 11.3671 2.8243C11.6108 3.38862 11.7409 3.99541 11.75 4.61001V5.00001H12.5C12.8978 5.00001 13.2794 5.15805 13.5607 5.43935C13.842 5.72066 14 6.10219 14 6.50001V8.50001C14 8.89784 13.842 9.27937 13.5607 9.56067C13.2794 9.84198 12.8978 10 12.5 10H11.75V10.5C11.7501 11.1758 11.5014 11.8279 11.0514 12.332C10.6013 12.8361 9.98145 13.1568 9.31 13.233C9.1796 13.4658 8.98946 13.6596 8.75919 13.7945C8.52891 13.9293 8.26684 14.0002 8 14H6.5C6.10218 14 5.72064 13.842 5.43934 13.5607C5.15804 13.2794 5 12.8978 5 12.5C5 12.1022 5.15804 11.7207 5.43934 11.4394C5.72064 11.158 6.10218 11 6.5 11H8C8.542 11 9.017 11.287 9.28 11.718C9.55563 11.6547 9.80162 11.4997 9.97781 11.2785C10.154 11.0573 10.2499 10.7828 10.25 10.5V4.62701C10.2431 4.20681 10.1531 3.79214 9.98496 3.40697C9.81687 3.02179 9.57409 2.67376 9.27067 2.38298C8.96725 2.09221 8.6092 1.86446 8.21722 1.7129C7.82524 1.56134 7.40711 1.48899 6.987 1.50001Z" fill="black"/>
</g>
<defs>
<clipPath id="clip0_1_1101">
<rect width="14" height="14" fill="white"/>
</clipPath>
</defs>
</svg>
