<svg width="26" height="26" viewBox="0 0 26 26" fill="none" xmlns="http://www.w3.org/2000/svg">
<path d="M18.4167 9.75H9.75004V7.58333C9.75004 6.71667 10.075 5.95833 10.725 5.30833C12.025 4.00833 14.0834 4.00833 15.275 5.30833C15.7084 5.74167 15.925 6.28333 16.1417 6.825C16.25 7.36667 16.9 7.69167 17.4417 7.58333C17.9834 7.475 18.4167 6.825 18.2 6.28333C17.9834 5.30833 17.4417 4.44167 16.7917 3.79167C15.8167 2.70833 14.4084 2.16667 13 2.16667C9.96671 2.16667 7.58337 4.55 7.58337 7.58333V9.75C5.74171 9.75 4.33337 11.1583 4.33337 13V20.5833C4.33337 22.425 5.74171 23.8333 7.58337 23.8333H18.4167C20.2584 23.8333 21.6667 22.425 21.6667 20.5833V13C21.6667 11.1583 20.2584 9.75 18.4167 9.75Z" fill="#C54B1E"/>
</svg>
