<svg width="31" height="30" viewBox="0 0 31 30" fill="none" xmlns="http://www.w3.org/2000/svg">
<path d="M25.4359 15.7895C26.5487 15.7895 27.6138 15.9947 28.6154 16.3421V9.47368L19.0769 0H3.17949C1.41487 0 0 1.40526 0 3.15789V25.2632C0 26.1007 0.334981 26.9039 0.93125 27.4961C1.52752 28.0883 2.33623 28.4211 3.17949 28.4211H16.4538C16.1041 27.4263 15.8974 26.3684 15.8974 25.2632C15.8974 20.0368 20.1738 15.7895 25.4359 15.7895ZM17.4872 2.36842L26.2308 11.0526H17.4872V2.36842ZM31 22.5L23.4487 30L19.0769 25.2632L20.921 23.4316L23.4487 25.9421L29.1559 20.2737L31 22.5Z" fill="#00D555"/>
</svg>
