<svg width="57" height="60" viewBox="0 0 57 60" fill="none" xmlns="http://www.w3.org/2000/svg">
<path d="M56.4573 32.1783C57.9587 28.1253 56.2318 23.4372 52.6713 21.4198C53.0808 18.5181 51.8702 15.4205 49.5322 13.6047C48.8617 13.0825 48.1081 12.6789 47.3069 12.3941C47.8469 8.90481 46.6601 5.20194 44.1619 2.77499C41.2838 -0.0199756 36.4949 -0.803236 32.5072 0.882005C30.7566 1.61783 29.3917 2.76906 28.5017 4.17539C27.6116 2.76306 26.2467 1.61779 24.4962 0.882005C20.5144 -0.803313 15.7195 -0.0199756 12.8415 2.77499C11.0019 4.5671 9.85663 7.26712 9.63112 10.0145C11.4944 9.73563 13.423 10.0561 15.0074 10.9224C15.583 11.2369 15.7906 11.9609 15.4762 12.5306C15.2625 12.9222 14.8531 13.1477 14.4318 13.1477C14.2419 13.1477 14.0461 13.1003 13.8621 12.9994C12.6219 12.317 11.0671 12.1092 9.59549 12.4238C8.81815 12.7145 8.10006 13.1121 7.47106 13.6047C5.13306 15.4146 3.91654 18.5181 4.33194 21.4198C0.765569 23.4314 -0.961296 28.1253 0.54598 32.1843C0.985098 33.3593 1.69717 34.4512 2.62293 35.3828C4.37349 36.801 6.62248 37.4003 8.66381 36.9731C9.30469 36.8367 9.93372 37.252 10.0643 37.8929C10.1949 38.5337 9.78538 39.1628 9.14453 39.2934C8.55706 39.418 7.95772 39.4714 7.35242 39.4714C5.50691 39.4714 3.6377 38.9077 2.02363 37.8573C1.60231 40.4802 1.97616 43.2158 3.1452 45.6132C4.7118 48.8354 7.61948 51.2802 11.0196 52.2831C12.1471 56.3183 16.0101 59.3447 20.1814 59.3447H20.2882C23.6173 59.3031 26.8098 57.2677 28.5128 54.4016C30.2159 57.2677 33.4084 59.309 36.7373 59.3447H36.8382C41.004 59.3447 44.8729 56.3183 45.9887 52.289C49.3889 51.2921 52.2966 48.8413 53.863 45.6251C55.4059 42.4563 55.5661 38.7118 54.3378 35.4181C55.2575 34.4983 55.9993 33.4064 56.4563 32.1781L56.4573 32.1783ZM14.1056 30.5701C13.4588 30.4811 13.0019 29.8818 13.0909 29.235C13.1799 28.5882 13.7733 28.1312 14.4261 28.2203C15.8977 28.422 17.5 27.6328 18.2298 26.3391C18.9597 25.0455 18.8232 23.2653 17.8975 22.1081C17.4881 21.5978 17.5711 20.8501 18.0815 20.4407C18.5918 20.0312 19.3395 20.1143 19.7489 20.6246C21.2799 22.5413 21.5054 25.3719 20.2949 27.5082C19.2148 29.413 17.0667 30.6177 14.8889 30.6177C14.6278 30.6236 14.3667 30.6057 14.1056 30.5701ZM21.2799 41.5245C20.283 41.7026 19.3513 42.2663 18.7223 43.0614C18.0933 43.8566 17.7729 44.8951 17.8322 45.9098C17.8737 46.5625 17.3753 47.1263 16.7225 47.1678H16.6454C16.0223 47.1678 15.5001 46.6812 15.4645 46.0521C15.3696 44.4678 15.874 42.8418 16.8531 41.5897C17.8322 40.3376 19.2919 39.4653 20.8585 39.1804C21.4994 39.0618 22.1225 39.4949 22.2353 40.1417C22.348 40.7886 21.9208 41.4059 21.2799 41.5245ZM51.7217 44.5865C50.3747 47.3517 47.6924 49.488 44.7254 50.1646C44.2626 50.2714 43.9065 50.6393 43.8234 51.1022C43.2182 54.354 40.0909 56.9651 36.8331 56.9651H36.7619C33.4804 56.9235 30.2641 54.1642 29.7003 50.9123V8.31144C29.7003 5.98528 31.0652 4.0686 33.4388 3.06575C36.5186 1.76621 40.3342 2.35959 42.5118 4.47215C44.4048 6.31174 45.3424 9.20757 44.9863 11.8897C43.3425 11.7592 41.6691 12.0796 40.2272 12.8689C39.6516 13.1834 39.4439 13.9074 39.7584 14.483C40.0728 15.0586 40.7909 15.2662 41.3724 14.9518C43.4494 13.8124 46.2147 14.026 48.0839 15.4799C49.9471 16.9278 50.8136 19.5091 50.1845 21.7641C50.0243 22.3456 50.321 22.9568 50.8788 23.1823C53.834 24.381 55.4005 28.2026 54.2375 31.3537C53.8637 32.3684 53.2109 33.2644 52.3861 33.9944C52.214 34.0775 52.0775 34.2021 51.9707 34.3445C50.3091 35.6203 48.1016 36.2552 46.0604 35.8339C45.4136 35.6974 44.7905 36.1128 44.6599 36.7537C44.5293 37.3945 44.9388 38.0236 45.5797 38.1542C46.1671 38.2728 46.7605 38.3322 47.3599 38.3322C49.1046 38.3322 50.8313 37.8278 52.3386 36.9495C53.0507 39.4537 52.8551 42.2601 51.7217 44.5865ZM44.2091 24.7786C43.7047 25.1999 42.9571 25.1287 42.5357 24.6243C41.7049 23.6274 40.0079 23.4375 38.9753 24.2208C37.9427 25.0041 37.6698 26.6894 38.4056 27.7575C38.7795 28.2975 38.643 29.0392 38.103 29.4072C37.8953 29.5496 37.6639 29.6149 37.4324 29.6149C37.0527 29.6149 36.6847 29.4368 36.4533 29.0986C34.9935 26.9801 35.4979 23.8825 37.5452 22.3278C39.5924 20.773 42.7137 21.1291 44.3634 23.1051C44.7848 23.6095 44.7135 24.3573 44.2091 24.7786ZM43.236 44.1118C43.2301 44.7645 42.7019 45.2867 42.0492 45.2867H42.0373C38.643 45.257 35.3911 42.7647 34.4832 39.4891C34.3052 38.8601 34.6791 38.2014 35.308 38.0293C35.943 37.8572 36.5957 38.2251 36.7678 38.8541C37.4028 41.1447 39.6814 42.8893 42.0611 42.9131C42.7198 42.919 43.2419 43.4531 43.236 44.1118Z" fill="url(#paint0_linear_5_1393)"/>
<defs>
<linearGradient id="paint0_linear_5_1393" x1="28.5" y1="0" x2="28.5" y2="59.3447" gradientUnits="userSpaceOnUse">
<stop stop-color="#F54B02"/>
<stop offset="1" stop-color="#FE7E01"/>
</linearGradient>
</defs>
</svg>
