<svg width="14" height="14" viewBox="0 0 14 14" fill="none" xmlns="http://www.w3.org/2000/svg">
<path d="M7 0C10.8661 0 14 3.13389 14 6.99999C14 10.8661 10.8661 14 7 14C5.76293 14.0021 4.54761 13.6747 3.479 13.0515L0.00281081 14L0.949209 10.5224C0.325481 9.45343 -0.00215713 8.2376 1.06881e-05 6.99999C1.06881e-05 3.13389 3.13391 0 7 0ZM4.6144 3.70999L4.4744 3.71559C4.38389 3.72183 4.29545 3.7456 4.214 3.78559C4.13811 3.82865 4.0688 3.8824 4.0082 3.94519C3.9242 4.02429 3.8766 4.09289 3.8255 4.15939C3.56659 4.49602 3.42719 4.90931 3.4293 5.33399C3.4307 5.67699 3.5203 6.01089 3.6603 6.32309C3.9466 6.95449 4.4177 7.62299 5.0393 8.24248C5.1891 8.39158 5.3361 8.54138 5.4943 8.68068C6.2667 9.36066 7.18709 9.85106 8.18229 10.1129L8.5799 10.1738C8.70939 10.1808 8.83889 10.171 8.96909 10.1647C9.17292 10.1539 9.37194 10.0987 9.55219 10.003C9.64378 9.95562 9.73324 9.90424 9.82029 9.84898C9.82029 9.84898 9.84993 9.82891 9.90779 9.78598C10.0023 9.71598 10.0604 9.66628 10.1388 9.58438C10.1976 9.52372 10.2466 9.45325 10.2858 9.37298C10.3404 9.25888 10.395 9.04118 10.4174 8.85988C10.4342 8.72128 10.4293 8.64568 10.4272 8.59878C10.4244 8.52388 10.3621 8.44618 10.2942 8.41328L9.88679 8.23059C9.88679 8.23059 9.27779 7.96528 8.90539 7.79589C8.86641 7.77892 8.82466 7.76919 8.78219 7.76719C8.73429 7.76217 8.68588 7.76752 8.64023 7.78286C8.59457 7.7982 8.55275 7.82317 8.51759 7.85608C8.51409 7.85468 8.46719 7.89459 7.9611 8.50778C7.93205 8.54682 7.89204 8.57632 7.84616 8.59252C7.80028 8.60873 7.75062 8.61091 7.7035 8.59878C7.65788 8.58663 7.61319 8.57119 7.5698 8.55258C7.483 8.51618 7.4529 8.50218 7.3934 8.47698C6.99151 8.30192 6.61951 8.06502 6.2909 7.77489C6.2027 7.69789 6.1208 7.61389 6.0368 7.53269C5.76143 7.26893 5.52143 6.97058 5.3228 6.64509L5.2815 6.57859C5.25228 6.53365 5.22833 6.4855 5.2101 6.43509C5.1835 6.33219 5.2528 6.24959 5.2528 6.24959C5.2528 6.24959 5.4229 6.06339 5.502 5.96259C5.579 5.86459 5.6441 5.76939 5.6861 5.70149C5.7687 5.56849 5.7946 5.43199 5.7512 5.32629C5.5552 4.84749 5.35267 4.37126 5.1436 3.89759C5.1023 3.80379 4.9798 3.73659 4.8685 3.72329C4.8307 3.71863 4.7929 3.71489 4.7551 3.71209C4.66111 3.7067 4.56687 3.70764 4.473 3.71489L4.6144 3.70999Z" fill="#22C45D"/>
</svg>
